<?xml version="1.0" encoding="utf-8"?>
<!-- Generator: Adobe Illustrator 15.0.0, SVG Export Plug-In . SVG Version: 6.00 Build 0)  -->
<!DOCTYPE svg PUBLIC "-//W3C//DTD SVG 1.1//EN" "http://www.w3.org/Graphics/SVG/1.1/DTD/svg11.dtd">
<svg version="1.1" id="Capa_1" xmlns="http://www.w3.org/2000/svg" xmlns:xlink="http://www.w3.org/1999/xlink" x="0px" y="0px"
	 width="13px" height="13px" viewBox="0 0 13 13" enable-background="new 0 0 13 13" xml:space="preserve">
<g>
	<g>
		<g>
			<g>
				<path fill="#54B300" d="M10.977,1.362c-0.213-0.141-0.504-0.081-0.643,0.135L6.681,7.354L4.659,5.388
					C4.469,5.213,4.176,5.225,4.001,5.413C3.829,5.602,3.839,5.896,4.027,6.069l2.432,2.364l0.018,0.012l0.035,0.037l0.063,0.023
					l0.077,0.029l0.077,0.014h0.113l0.044-0.014l0.13-0.053l0.021-0.014L7.115,8.41L7.154,8.35l0.002-0.002l3.955-6.341
					C11.252,1.792,11.193,1.503,10.977,1.362z"/>
			</g>
		</g>
	</g>
	<g>
		<path fill="#54B300" d="M10.929,5.739c0.084,0.346,0.136,0.705,0.136,1.077c0,2.516-2.048,4.563-4.564,4.563
			S1.935,9.332,1.935,6.816c0-2.518,2.047-4.565,4.565-4.565c0.37,0,0.726,0.056,1.069,0.14l0.609-1.16
			C7.646,1.068,7.086,0.971,6.5,0.971c-3.223,0-5.844,2.622-5.844,5.843c0,3.222,2.621,5.844,5.844,5.844
			c3.221,0,5.843-2.622,5.843-5.842c0-0.763-0.159-1.485-0.426-2.153L10.929,5.739z"/>
	</g>
</g>
</svg>
