<svg version="1.1" xmlns="http://www.w3.org/2000/svg" x="0" y="0" width="46" height="44" viewBox="0 0 46 44" enable-background="new 0 0 46 44" xml:space="preserve"><path fill="#39576E" d="M44.3 0H12.6c-0.4 0-0.7 0.3-0.7 0.7V3.5H6.8c-0.2 0-0.4 0.1-0.5 0.2C6.2 3.8 6.1 4 6.1 4.2l0.3 2H1.7c-0.2 0-0.4 0.1-0.6 0.3C1 6.7 0.9 6.9 1 7.1l10.5 36.1c0.1 0.3 0.4 0.5 0.7 0.5 0.1 0 32.1 0 32.1 0 0.4 0 0.7-0.3 0.7-0.7V0.7C45 0.3 44.7 0 44.3 0zM12 4.8v32.1L7.6 4.8H12L12 4.8zM6.6 7.6l3.5 25.5L2.6 7.6H6.6zM43.6 42.4H13.3V1.4h30.3L43.6 42.4 43.6 42.4 43.6 42.4zM25.5 6.9H14.4V3.7h11V6.9L25.5 6.9zM42.6 6.9H31.6V3.7h11V6.9L42.6 6.9zM26.2 5.3c0-1.3 1-2.3 2.3-2.3 1.3 0 2.3 1 2.3 2.3 0 1.3-1 2.3-2.3 2.3C27.2 7.6 26.2 6.6 26.2 5.3zM15.6 25.6h25.4v1.2H15.6V25.6zM15.6 30.1h25.4v1.2H15.6V30.1zM15.6 34.6h25.4v1.2H15.6V34.6zM41.1 11.2H15.8c-0.2 0-0.4 0.2-0.4 0.4v8c0 0.2 0.2 0.4 0.4 0.4h25.3c0.2 0 0.4-0.2 0.4-0.4v-8C41.5 11.4 41.4 11.2 41.1 11.2zM23.5 17.9c0 0.2-0.2 0.4-0.4 0.4H23c-0.2 0-0.4-0.1-0.5-0.3l-1.4-2.2c-0.1-0.1-0.2-0.3-0.3-0.4 0 0-0.3-0.5-0.5-0.9 0-0.1 0 0 0 0 0 0.4 0 1 0 1.5v1.9c0 0.2-0.2 0.4-0.4 0.4H19.8c-0.2 0-0.4-0.2-0.4-0.4v-4.6c0-0.2 0.2-0.4 0.4-0.4h0.2c0.2 0 0.4 0.1 0.5 0.3l1.4 2.2c0.1 0.1 0.2 0.3 0.3 0.4 0 0 0.3 0.4 0.5 0.9 0 0 0 0.1 0 0 0-0.4 0-0.9 0-1.5v-1.9c0-0.2 0.2-0.4 0.4-0.4h0.1c0.2 0 0.4 0.2 0.4 0.4v4.6H23.5zM27.5 17.9c0 0.2-0.2 0.4-0.4 0.4h-2.4c-0.2 0-0.4-0.2-0.4-0.4v-4.6c0-0.2 0.2-0.4 0.4-0.4h2.3c0.2 0 0.4 0.2 0.4 0.4v0c0 0.2-0.2 0.4-0.4 0.4h-1.6c-0.1 0-0.1 0.1-0.1 0.1v1.1c0 0.1 0.1 0.1 0.1 0.1h1.5c0.2 0 0.4 0.2 0.4 0.4v0c0 0.2-0.2 0.4-0.4 0.4h-1.5c-0.1 0-0.1 0.1-0.1 0.1v1.3c0 0.1 0.1 0.1 0.1 0.1h1.7c0.2 0 0.4 0.2 0.4 0.4V17.9L27.5 17.9 27.5 17.9zM34.2 13.3l-1.3 4.6c-0.1 0.2-0.2 0.3-0.4 0.3h-0.2c-0.2 0-0.4-0.2-0.4-0.3l-0.5-2.2c0-0.1-0.1-0.4-0.1-0.5 0 0-0.1-0.4-0.2-0.8 -0.1 0.3-0.2 0.7-0.3 1.1l-0.7 2.4c-0.1 0.2-0.2 0.3-0.4 0.3h-0.2c-0.2 0-0.4-0.1-0.4-0.3l-1.2-4.6c0-0.1 0-0.2 0.1-0.3 0.1-0.1 0.2-0.1 0.3-0.1h0.2c0.2 0 0.4 0.2 0.4 0.3l0.5 2.1c0 0.1 0.1 0.4 0.1 0.5 0 0 0.1 0.3 0.2 0.8 0 0.1 0.1 0.1 0.1 0 0.1-0.3 0.2-0.7 0.3-1l0.6-2.3c0.1-0.2 0.2-0.3 0.4-0.3h0.2c0.2 0 0.4 0.2 0.4 0.3l0.5 2.1c0 0.1 0.1 0.4 0.1 0.5 0 0 0.1 0.4 0.2 0.8 0 0 0 0.1 0 0 0.1-0.3 0.2-0.7 0.3-1.1l0.6-2.3c0.1-0.2 0.2-0.3 0.4-0.3h0.2c0.1 0 0.2 0 0.3 0.1C34.2 13.1 34.2 13.2 34.2 13.3zM35.8 18.3c-0.5 0-1.1-0.2-1.1-0.2 -0.2-0.1-0.3-0.3-0.2-0.5 0 0 0.1-0.3 0.1-0.4 0-0.1 0.1 0 0.1 0l0.1 0.1c0.3 0.2 0.7 0.3 1.1 0.3 0.6 0 0.9-0.3 0.9-0.7 0-0.4-0.1-0.6-0.9-0.9 -1-0.3-1.4-0.8-1.4-1.6 0-0.9 0.7-1.5 1.8-1.5 0.6 0 1 0.2 1.2 0.3l0 0c0 0 0.1 0 0 0.1 0 0.1-0.1 0.3-0.1 0.3 0 0.1-0.2 0.2-0.3 0.2 -0.1 0-0.1 0-0.2 0 0 0-0.3-0.1-0.7-0.1 -0.6 0-0.8 0.3-0.8 0.6 0 0.4 0.2 0.6 0.9 0.9 1 0.4 1.4 0.9 1.4 1.6C37.7 17.5 37.2 18.3 35.8 18.3z"/></svg>