<svg version="1.1" id="Layer_1" xmlns="http://www.w3.org/2000/svg" x="0" y="0" width="300" height="65" viewBox="0 0 300 65" enable-background="new 0 0 300 65" xml:space="preserve"><path fill="#BBBDBF" d="M60.92 6.16l-0.12 0.05 -0.16 0.05 -0.12 0.05 -0.12 0.05 -0.12 0.05 -0.12 0.05L60.04 6.48l-0.12 0.05L59.8 6.57l-0.12 0.05L59.56 6.66l-0.12 0.05 -0.12 0.05 -0.12 0.05 -0.08 0.04 -0.12 0.05 -0.12 0.05 -0.08 0.04 -0.12 0.05 -0.12 0.05 -0.08 0.04 -0.12 0.05 -0.08 0.04 -0.12 0.05 -0.08 0.04 -0.12 0.05L57.88 7.38l-0.12 0.05 -0.08 0.04 -0.12 0.05 -0.08 0.04 -0.08 0.04 -0.12 0.05 -0.08 0.04 -0.08 0.04 -0.12 0.05 -0.08 0.04 -0.08 0.05 -0.12 0.05 -0.08 0.04L56.57 8l-0.08 0.04 -0.12 0.05 -0.08 0.04 -0.08 0.04 -0.08 0.04 -0.12 0.05L55.93 8.31l-0.08 0.04L55.77 8.4l-0.08 0.04 -0.12 0.05 -0.08 0.04 -0.08 0.04 -0.08 0.04 -0.08 0.04 -0.08 0.04 -0.12 0.05 -0.08 0.04 -0.08 0.04 -0.08 0.04 -0.08 0.04 -0.08 0.04 -0.08 0.04 -0.12 0.05 -0.08 0.04 -0.08 0.05 -0.08 0.04 -0.08 0.04L54.06 9.28l-0.08 0.04L53.86 9.37l-0.08 0.04 -0.08 0.05 -0.08 0.04 -0.08 0.04L53.46 9.59l-0.12 0.05L53.26 9.68l-0.04 0.04 0 0.04 0.04 0.08 0.04 0.08L53.36 10l0.05 0.12 0.04 0.08 0.08 0 0.08-0.04 0.16-0.01 0.08 0.04 0.13 0.04 0.08 0.04 0.08 0.04 0.12 0.04 0.08 0.04 0.08 0.04 0.12 0.04 0.08 0.04 0.08 0.04 0.12 0.04 0.08 0.04 0.08 0.04 0.12 0.04 0.08 0.04 0.08 0.04 0.04 0.04 0.04 0.04 0.04 0.04 0.04 0.04 0.08 0 0.04-0.04 0.04-0.04 0.04-0.04 0.04-0.04 0.04-0.04 0.04-0.04 0.04-0.04 0.04-0.04 0.08-0.04 0.04-0.04 0.04-0.04 0.04-0.04 0.08-0.04 0.04-0.04 0.16-0.05 0.12-0.04 0.08-0.04 0.12-0.04 0.08-0.04 0.08-0.04 0.12-0.04 0.08-0.04 0.08-0.04 0.08-0.04 0.16-0.05 0.16-0.05 0.12-0.05 0.16-0.05 0.12-0.05 0.12-0.04 0.12-0.04 0.08-0.04 0.12-0.04 0.12-0.04 0.08-0.04 0.12-0.05 0.08-0.04 0.08-0.04 0.08-0.04 0.08-0.04 0.08-0.04 0.08-0.04 0.08-0.04 0.08-0.04 0.08-0.04 0.08-0.04 0.08-0.04 0.08-0.04 0.04-0.04 0.08-0.04 0.04-0.04 0.08-0.04 0.08-0.04 -0.01-0.16 -0.04-0.08 -0.06-0.09 0-0.04 0.08-0.04 0.08-0.04 0.12-0.04 0-0.12 -0.04-0.08 -0.04-0.08 -0.05-0.12 -0.04-0.08 -0.16 0.01 -0.08 0.04 -0.12 0.05 0.08-0.04 0.08-0.04 0.04-0.04L59.84 7.5l0.08-0.04 0.08-0.04 0.08-0.04 0.08-0.04 0.08-0.04 0.04-0.04 0.08-0.04 0.08-0.04 0.08-0.04 0.08-0.04 0.08-0.04 0.08-0.04 0.04-0.04 0.08-0.04 0.08-0.04 0.08-0.04 0.08-0.04 0.08-0.04 0.08-0.04 0.08-0.04L61.34 6.42l-0.05-0.12L61.25 6.23l-0.04-0.12 -0.12 0.01L60.92 6.16zM59.56 7.67l-0.08 0.04L59.56 7.67zM59.48 7.72l-0.09 0.03L59.48 7.72z"/><polygon fill="#BBBDBF" points="59.24 11.96 58.95 12.01 58.75 12.06 58.59 12.11 58.47 12.15 58.35 12.2 58.27 12.24 58.15 12.29 58.07 12.33 57.99 12.38 57.91 12.42 57.71 12.47 57.55 12.52 57.35 12.56 57.19 12.61 56.99 12.66 56.83 12.71 56.67 12.76 56.51 12.8 56.35 12.85 56.18 12.9 56.02 12.95 55.86 12.99 55.7 13.04 55.58 13.08 55.42 13.13 55.3 13.18 55.14 13.23 55.02 13.27 54.9 13.32 54.74 13.36 54.62 13.41 54.5 13.45 54.38 13.5 54.26 13.55 54.1 13.59 53.98 13.64 53.86 13.68 53.74 13.73 53.66 13.77 53.54 13.82 53.42 13.86 53.3 13.91 53.18 13.96 53.06 14 52.98 14.04 52.86 14.09 52.74 14.14 52.66 14.18 52.54 14.23 52.42 14.27 52.34 14.31 52.22 14.36 52.14 14.4 52.02 14.45 51.94 14.49 51.82 14.54 51.74 14.58 51.62 14.63 51.54 14.67 51.42 14.72 51.34 14.76 51.26 14.81 51.14 14.85 51.06 14.9 50.98 14.94 50.86 14.98 50.78 15.03 50.71 15.07 50.63 15.12 50.51 15.16 50.43 15.21 50.35 15.25 50.27 15.29 50.19 15.34 50.07 15.38 49.99 15.43 49.91 15.47 49.83 15.51 49.75 15.56 49.67 15.6 49.59 15.65 49.51 15.69 49.43 15.73 49.35 15.78 49.27 15.82 49.19 15.86 49.11 15.91 49.07 15.95 49 15.99 48.92 16.04 48.84 16.08 48.76 16.13 48.68 16.17 48.6 16.21 48.52 16.26 48.48 16.3 48.4 16.34 48.32 16.39 48.24 16.43 48.2 16.47 48.12 16.52 48.04 16.56 47.96 16.61 47.92 16.65 47.85 16.69 47.77 16.73 47.69 16.78 47.65 16.82 47.57 16.86 47.49 16.91 47.45 16.95 47.37 16.99 47.29 17.04 47.21 17.08 47.17 17.12 47.09 17.17 47.05 17.21 46.97 17.25 46.89 17.3 46.86 17.34 46.78 17.38 46.7 17.43 46.66 17.47 46.58 17.51 46.5 17.56 46.46 17.6 46.38 17.64 46.34 17.68 46.26 17.73 46.18 17.77 46.14 17.81 46.06 17.86 46.03 17.9 45.95 17.94 45.91 17.99 45.83 18.03 45.75 18.07 45.71 18.12 45.63 18.16 45.59 18.2 45.51 18.25 45.47 18.29 45.39 18.33 45.35 18.38 45.27 18.42 45.24 18.46 45.16 18.5 45.12 18.55 45.04 18.59 44.96 18.63 44.92 18.68 44.84 18.72 44.8 18.76 44.72 18.81 44.68 18.85 44.6 18.89 44.56 18.93 44.49 18.98 44.45 19.02 44.37 19.06 44.33 19.11 44.25 19.15 44.21 19.19 44.13 19.24 44.09 19.28 44.01 19.32 43.97 19.36 43.89 19.41 43.85 19.45 43.77 19.49 43.74 19.54 43.66 19.58 43.62 19.62 43.54 19.67 43.5 19.71 43.46 19.75 43.38 19.79 43.34 19.84 43.26 19.88 43.22 19.92 43.14 19.96 43.11 20.01 43.03 20.05 42.99 20.09 42.91 20.14 42.87 20.18 42.79 20.22 42.75 20.27 42.67 20.31 42.63 20.35 42.55 20.4 42.51 20.44 42.43 20.48 42.4 20.52 42.32 20.57 42.28 20.61 42.24 20.65 42.16 20.7 42.12 20.74 42.04 20.78 42 20.82 41.92 20.87 41.88 20.91 41.8 20.95 41.77 20.99 41.69 21.04 41.65 21.08 41.57 21.13 41.53 21.17 41.45 21.21 41.41 21.25 41.33 21.3 41.29 21.34 41.21 21.38 41.17 21.43 41.09 21.47 41.05 21.51 40.98 21.56 40.94 21.6 40.85 21.64 40.82 21.68 40.74 21.73 40.7 21.77 40.62 21.81 40.58 21.85 40.5 21.9 40.46 21.94 40.38 21.98 40.34 22.03 40.26 22.07 40.23 22.11 40.19 22.15 40.15 22.2 40.11 22.24 40.07 22.28 40.03 22.32 39.99 22.37 39.95 22.41 39.92 22.45 39.88 22.49 39.84 22.53 39.8 22.58 39.76 22.62 39.72 22.7 39.68 22.74 39.64 22.79 39.6 22.83 39.57 22.87 39.53 22.91 39.49 22.99 39.45 23.04 39.41 23.08 39.37 23.12 39.34 23.16 39.3 23.2 39.26 23.25 39.22 23.29 39.18 23.33 39.14 23.37 39.1 23.42 39.06 23.46 39.02 23.5 38.98 23.54 38.99 23.58 39.11 23.58 39.19 23.53 39.27 23.49 39.35 23.45 39.47 23.4 39.55 23.36 39.67 23.31 39.74 23.27 39.87 23.22 39.95 23.18 40.06 23.13 40.19 23.09 40.26 23.04 40.38 23 40.5 22.95 40.63 22.91 40.7 22.86 40.74 22.82 40.78 22.78 40.82 22.74 40.86 22.69 40.9 22.65 40.94 22.61 40.98 22.57 41.02 22.52 41.05 22.48 41.09 22.44 41.13 22.4 41.17 22.36 41.21 22.27 41.25 22.23 41.29 22.19 41.33 22.15 41.36 22.06 41.4 22.02 41.44 21.98 41.48 21.94 41.52 21.86 41.56 21.81 41.59 21.77 41.63 21.73 41.67 21.69 41.71 21.65 41.79 21.6 41.83 21.56 41.91 21.52 41.95 21.47 41.99 21.43 42.07 21.39 42.1 21.35 42.18 21.3 42.22 21.26 42.3 21.22 42.34 21.17 42.42 21.13 42.46 21.09 42.54 21.04 42.58 21 42.66 20.96 42.7 20.92 42.78 20.87 42.81 20.83 42.89 20.79 42.93 20.74 43.01 20.7 43.05 20.66 43.13 20.61 43.17 20.57 43.25 20.53 43.29 20.49 43.37 20.44 43.41 20.4 43.49 20.36 43.52 20.31 43.6 20.27 43.64 20.23 43.72 20.18 43.76 20.14 43.84 20.1 43.88 20.06 43.96 20.01 44 19.97 44.08 19.93 44.16 19.88 44.2 19.84 44.28 19.8 44.31 19.75 44.39 19.71 44.43 19.67 44.51 19.62 44.55 19.58 44.63 19.54 44.71 19.49 44.75 19.45 44.83 19.41 44.87 19.37 44.95 19.32 44.99 19.28 45.07 19.24 45.15 19.19 45.18 19.15 45.26 19.11 45.3 19.06 45.38 19.02 45.46 18.98 45.5 18.93 45.58 18.89 45.66 18.85 45.7 18.81 45.78 18.76 45.82 18.72 45.9 18.67 45.98 18.63 46.01 18.59 46.09 18.55 46.17 18.5 46.21 18.46 46.29 18.42 46.37 18.37 46.45 18.33 46.49 18.29 46.57 18.24 46.65 18.2 46.69 18.16 46.77 18.11 46.85 18.07 46.93 18.02 47.01 17.98 47.04 17.94 47.12 17.9 47.2 17.85 47.28 17.81 47.36 17.76 47.4 17.72 47.48 17.68 47.56 17.63 47.64 17.59 47.72 17.55 47.8 17.5 47.88 17.46 47.92 17.42 48 17.37 48.08 17.33 48.16 17.28 48.23 17.24 48.31 17.2 48.39 17.15 48.47 17.11 48.55 17.07 48.63 17.02 48.71 16.98 48.83 16.93 48.91 16.89 48.99 16.84 49.07 16.8 49.15 16.76 49.23 16.71 49.35 16.67 49.43 16.62 49.51 16.58 49.59 16.54 49.71 16.49 49.79 16.45 49.91 16.4 49.99 16.36 50.07 16.31 50.19 16.27 50.27 16.22 50.39 16.18 50.47 16.13 50.59 16.09 50.67 16.05 50.79 16 50.86 15.96 50.98 15.91 51.06 15.87 51.18 15.82 51.3 15.78 51.38 15.73 51.5 15.69 51.62 15.64 51.74 15.6 51.82 15.55 51.94 15.51 52.06 15.46 52.18 15.41 52.3 15.37 52.42 15.32 52.54 15.28 52.66 15.23 52.78 15.19 52.9 15.14 53.02 15.1 53.14 15.05 53.26 15 53.43 14.96 53.54 14.91 53.67 14.87 53.83 14.82 53.95 14.77 54.11 14.73 54.23 14.68 54.39 14.63 54.51 14.59 54.67 14.54 54.83 14.49 54.99 14.44 55.15 14.4 55.31 14.35 55.47 14.3 55.63 14.26 55.79 14.21 55.83 14.21 55.79 14.25 55.72 14.29 55.68 14.34 55.64 14.38 55.6 14.42 55.56 14.46 55.52 14.5 55.48 14.55 55.44 14.59 55.4 14.63 55.37 14.67 55.33 14.72 55.29 14.76 55.25 14.8 55.21 14.84 55.17 14.88 55.13 14.93 55.09 14.97 55.05 15.01 55.02 15.05 54.98 15.09 54.94 15.14 54.9 15.18 54.86 15.26 54.82 15.3 54.78 15.35 54.74 15.39 54.71 15.43 54.67 15.47 54.63 15.51 54.59 15.55 54.55 15.6 54.51 15.64 54.47 15.68 54.44 15.76 54.4 15.81 54.36 15.85 54.32 15.89 54.28 15.93 54.24 15.98 54.2 16.06 54.17 16.1 54.13 16.14 54.09 16.18 54.05 16.27 54.01 16.31 53.97 16.35 53.93 16.39 53.9 16.48 53.86 16.52 53.82 16.56 53.78 16.64 53.74 16.68 53.71 16.77 53.67 16.81 53.63 16.85 53.59 16.93 53.55 16.98 53.51 17.06 53.48 17.1 53.44 17.18 53.4 17.27 53.36 17.31 53.32 17.39 53.29 17.47 53.25 17.51 53.21 17.6 53.17 17.68 53.14 17.72 53.1 17.8 53.06 17.89 53.02 17.97 52.99 18.05 52.95 18.13 52.91 18.22 52.87 18.26 52.84 18.34 52.8 18.42 52.76 18.55 52.73 18.63 52.69 18.71 52.65 18.8 52.61 18.88 52.58 18.96 52.54 19.08 52.51 19.17 52.47 19.29 52.43 19.37 52.4 19.49 52.36 19.62 52.33 19.74 52.29 19.86 52.25 19.99 52.22 20.11 52.19 20.27 52.15 20.4 52.12 20.6 52.09 20.8 52.06 21.05 52.03 21.49 52.05 21.86 52.11 22.26 52.16 22.46 52.2 22.58 52.25 22.74 52.29 22.82 52.34 22.94 52.38 23.02 52.43 23.1 52.47 23.17 52.52 23.25 52.56 23.29 52.6 23.37 52.64 23.41 52.69 23.45 52.73 23.53 52.77 23.57 52.81 23.6 52.86 23.64 52.9 23.68 52.94 23.72 52.98 23.76 53.03 23.8 53.11 23.83 53.15 23.87 53.19 23.91 53.24 23.95 53.32 23.99 53.36 24.03 53.44 24.06 53.53 24.1 53.61 24.14 53.65 24.18 53.73 24.21 53.86 24.25 53.94 24.29 54.02 24.32 54.15 24.36 54.27 24.39 54.39 24.43 54.52 24.46 54.68 24.5 54.81 24.53 55.01 24.56 55.17 24.6 55.38 24.63 55.54 24.66 55.75 24.7 55.95 24.73 56.16 24.76 56.36 24.79 56.53 24.82 56.73 24.86 56.89 24.89 57.1 24.92 57.26 24.96 57.43 24.99 57.59 25.02 57.76 25.05 57.92 25.09 58.04 25.12 58.17 25.16 58.33 25.19 58.46 25.23 58.58 25.26 58.66 25.3 58.78 25.34 58.91 25.37 58.99 25.41 59.11 25.44 59.2 25.48 59.28 25.52 59.36 25.55 59.45 25.59 59.53 25.63 59.61 25.67 59.69 25.7 59.78 25.74 59.82 25.78 59.9 25.81 59.94 25.85 60.03 25.89 60.07 25.93 60.15 25.97 60.2 26 60.24 26.04 60.32 26.08 60.36 26.12 60.41 26.16 60.45 26.2 60.49 26.24 60.53 26.27 60.58 26.31 60.62 26.35 60.66 26.39 60.7 26.43 60.74 26.47 60.79 26.51 60.83 26.54 60.87 26.58 60.92 26.66 60.96 26.7 61 26.78 61.04 26.82 61.09 26.9 61.13 26.94 61.17 27.02 61.22 27.09 61.26 27.17 61.31 27.25 61.35 27.37 61.4 27.45 61.44 27.57 61.49 27.73 61.53 27.85 61.58 28.05 61.64 28.33 61.69 29.63 61.66 29.95 61.63 30.24 61.6 30.44 61.57 30.64 61.54 30.81 61.51 31.01 61.47 31.13 61.44 31.29 61.4 31.46 61.37 31.58 61.33 31.71 61.3 31.83 61.26 31.95 61.23 32.07 61.19 32.2 61.15 32.32 61.12 32.44 61.08 32.52 61.05 32.65 61.01 32.73 60.97 32.85 60.94 32.94 60.9 33.06 60.86 33.14 60.83 33.23 60.79 33.35 60.75 33.43 60.72 33.51 60.68 33.59 60.64 33.67 60.6 33.76 60.57 33.84 60.53 33.92 60.49 34.01 60.46 34.09 60.42 34.17 60.38 34.25 60.34 34.34 60.31 34.42 60.27 34.5 60.23 34.58 60.2 34.67 60.16 34.75 60.12 34.79 60.08 34.87 60.05 34.96 60.01 35.04 59.97 35.08 59.93 35.16 59.89 35.24 59.86 35.29 59.82 35.37 59.78 35.45 59.74 35.49 59.7 35.58 59.67 35.66 59.63 35.7 59.59 35.78 59.55 35.83 59.52 35.91 59.48 35.95 59.44 36.03 59.4 36.12 59.36 36.16 59.33 36.24 59.29 36.28 59.25 36.33 59.21 36.41 59.17 36.45 59.14 36.53 59.1 36.57 59.06 36.66 59.02 36.7 58.98 36.78 58.94 36.82 58.91 36.87 58.87 36.95 58.83 36.99 58.79 37.03 58.75 37.12 58.71 37.16 58.68 37.2 58.64 37.28 58.6 37.32 58.56 37.37 58.52 37.45 58.48 37.49 58.45 37.53 58.41 37.62 58.37 37.66 58.33 37.7 58.29 37.74 58.25 37.83 58.22 37.87 58.18 37.91 58.14 37.95 58.1 37.99 58.06 38.08 58.02 38.12 57.98 38.16 57.95 38.2 57.91 38.24 57.87 38.33 57.83 38.37 57.79 38.41 57.75 38.45 57.71 38.49 57.67 38.54 57.64 38.58 57.6 38.66 57.56 38.7 57.52 38.75 57.48 38.79 57.44 38.83 57.41 38.87 57.37 38.92 57.33 38.96 57.29 39 57.25 39.04 57.21 39.12 57.17 39.17 57.13 39.21 57.1 39.25 57.06 39.29 57.02 39.33 56.98 39.38 56.94 39.42 56.9 39.46 56.86 39.5 56.82 39.55 56.78 39.59 56.75 39.63 56.71 39.67 56.67 39.71 56.63 39.76 56.59 39.8 56.55 39.84 56.51 39.88 56.47 39.92 56.43 39.97 56.4 40.01 56.36 40.05 56.32 40.09 56.24 40.14 56.2 40.18 56.16 40.22 56.12 40.26 56.08 40.31 56.04 40.35 56 40.39 55.97 40.43 55.93 40.47 55.89 40.52 55.81 40.56 55.77 40.6 55.73 40.65 55.69 40.69 55.65 40.73 55.61 40.77 55.53 40.81 55.5 40.85 55.46 40.9 55.42 40.94 55.38 40.98 55.34 41.02 55.26 41.07 55.22 41.11 55.18 41.15 55.14 41.19 55.06 41.24 55.03 41.28 54.99 41.32 54.95 41.37 54.87 41.41 54.83 41.45 54.79 41.49 54.75 41.53 54.71 41.58 54.67 41.62 54.63 41.66 54.6 41.7 54.56 41.75 54.52 41.79 54.48 41.83 54.44 41.87 54.4 41.95 54.37 42 54.33 42.04 54.29 42.08 54.25 42.12 54.21 42.17 54.17 42.21 54.13 42.29 54.09 42.33 54.06 42.37 54.02 42.42 53.98 42.46 53.94 42.5 53.9 42.54 53.86 42.58 53.82 42.63 53.78 42.71 53.71 42.75 53.67 42.8 53.67 42.83 53.79 42.83 53.83 42.79 53.87 42.75 53.91 42.7 53.99 42.66 54.02 42.62 54.06 42.58 54.1 42.53 54.18 42.49 54.22 42.45 54.26 42.4 54.3 42.36 54.34 42.32 54.42 42.28 54.46 42.23 54.5 42.19 54.53 42.15 54.57 42.11 54.65 42.06 54.69 42.02 54.73 41.98 54.77 41.94 54.81 41.9 54.85 41.85 54.88 41.81 54.96 41.77 55 41.73 55.04 41.69 55.08 41.64 55.12 41.6 55.16 41.56 55.2 41.52 55.28 41.47 55.32 41.43 55.36 41.39 55.39 41.35 55.43 41.31 55.47 41.26 55.51 41.22 55.55 41.18 55.59 41.14 55.63 41.09 55.71 41.05 55.75 41.01 55.78 40.97 55.82 40.92 55.86 40.88 55.9 40.84 55.94 40.8 55.98 40.76 56.02 40.71 56.06 40.67 56.1 40.63 56.14 40.59 56.17 40.54 56.21 40.5 56.25 40.46 56.29 40.42 56.33 40.38 56.37 40.33 56.41 40.29 56.45 40.25 56.49 40.21 56.52 40.17 56.56 40.12 56.6 40.08 56.64 40.04 56.68 40 56.72 39.95 56.76 39.91 56.8 39.87 56.83 39.83 56.87 39.78 56.91 39.74 56.95 39.7 56.99 39.66 57.03 39.62 57.07 39.58 57.11 39.53 57.15 39.49 57.19 39.45 57.22 39.41 57.26 39.36 57.3 39.32 57.34 39.28 57.38 39.24 57.42 39.2 57.46 39.15 57.5 39.11 57.54 39.07 57.57 39.03 57.61 38.99 57.65 38.9 57.69 38.86 57.73 38.82 57.77 38.78 57.81 38.73 57.84 38.69 57.88 38.65 57.92 38.61 57.96 38.57 58 38.52 58.04 38.44 58.08 38.4 58.12 38.35 58.15 38.31 58.19 38.27 58.23 38.23 58.27 38.19 58.31 38.1 58.35 38.06 58.39 38.02 58.42 37.98 58.46 37.94 58.5 37.9 58.54 37.85 58.58 37.77 58.62 37.73 58.66 37.69 58.69 37.65 58.73 37.6 58.77 37.52 58.81 37.48 58.85 37.44 58.89 37.4 58.93 37.35 58.96 37.27 59 37.23 59.04 37.19 59.08 37.14 59.12 37.1 59.16 37.02 59.2 36.98 59.23 36.93 59.27 36.89 59.31 36.81 59.35 36.77 59.39 36.73 59.43 36.64 59.46 36.6 59.5 36.56 59.54 36.52 59.58 36.43 59.62 36.39 59.66 36.35 59.69 36.27 59.73 36.23 59.77 36.18 59.81 36.1 59.85 36.06 59.89 36.02 59.92 35.93 59.96 35.89 60 35.85 60.04 35.77 60.08 35.73 60.12 35.68 60.15 35.6 60.19 35.56 60.23 35.48 60.27 35.43 60.31 35.39 60.34 35.31 60.38 35.27 60.42 35.18 60.46 35.14 60.5 35.06 60.54 35.02 60.58 34.98 60.61 34.89 60.65 34.85 60.69 34.77 60.73 34.73 60.76 34.64 60.8 34.6 60.84 34.52 60.88 34.48 60.92 34.39 60.96 34.35 60.99 34.27 61.03 34.19 61.07 34.15 61.1 34.06 61.14 34.02 61.18 33.94 61.22 33.85 61.26 33.81 61.29 33.73 61.33 33.65 61.37 33.6 61.41 33.52 61.44 33.44 61.48 33.4 61.52 33.31 61.56 33.23 61.6 33.19 61.63 33.11 61.67 33.03 61.71 32.94 61.75 32.86 61.79 32.82 61.82 32.74 61.86 32.65 61.9 32.57 61.93 32.49 61.97 32.41 62.01 32.32 62.05 32.24 62.08 32.16 62.12 32.08 62.16 31.99 62.19 31.91 62.23 31.83 62.27 31.75 62.31 31.66 62.34 31.58 62.38 31.5 62.42 31.38 62.45 31.29 62.49 31.21 62.53 31.09 62.56 31 62.6 30.92 62.63 30.8 62.67 30.72 62.71 30.59 62.74 30.47 62.78 30.35 62.82 30.27 62.85 30.14 62.89 30.02 62.92 29.86 62.96 29.73 62.99 29.61 63.03 29.45 63.06 29.28 63.09 29.12 63.13 28.92 63.16 28.71 63.19 28.47 63.21 28.14 63.16 26.85 63.11 26.57 63.06 26.41 63.01 26.25 62.96 26.09 62.92 25.97 62.88 25.89 62.83 25.77 62.79 25.69 62.74 25.61 62.7 25.53 62.65 25.46 62.61 25.38 62.57 25.3 62.52 25.26 62.48 25.18 62.44 25.14 62.39 25.1 62.35 25.02 62.31 24.98 62.27 24.95 62.22 24.91 62.18 24.83 62.14 24.79 62.09 24.75 62.05 24.71 62.01 24.67 61.97 24.64 61.93 24.6 61.84 24.56 61.8 24.52 61.76 24.48 61.72 24.44 61.67 24.4 61.59 24.37 61.55 24.33 61.51 24.29 61.42 24.25 61.38 24.21 61.3 24.18 61.21 24.14 61.17 24.1 61.09 24.06 61.01 24.03 60.92 23.99 60.84 23.95 60.76 23.92 60.68 23.88 60.59 23.84 60.47 23.81 60.39 23.77 60.26 23.74 60.18 23.7 60.06 23.66 59.93 23.63 59.81 23.59 59.65 23.56 59.52 23.52 59.36 23.49 59.19 23.46 59.03 23.42 58.87 23.39 58.7 23.36 58.5 23.32 58.29 23.29 58.09 23.26 57.88 23.23 57.68 23.2 57.43 23.17 57.23 23.13 56.98 23.11 56.74 23.07 56.53 23.04 56.37 23.01 56.16 22.98 56 22.94 55.84 22.91 55.71 22.88 55.59 22.84 55.46 22.8 55.34 22.77 55.22 22.73 55.13 22.7 55.05 22.66 54.97 22.62 54.89 22.59 54.8 22.55 54.72 22.51 54.68 22.47 54.6 22.44 54.55 22.4 54.51 22.36 54.43 22.32 54.39 22.28 54.34 22.25 54.3 22.21 54.26 22.17 54.22 22.13 54.17 22.09 54.13 22.01 54.09 21.97 54.04 21.89 54 21.85 53.96 21.78 53.91 21.7 53.87 21.62 53.83 21.54 53.78 21.42 53.73 21.3 53.69 21.18 53.64 21.02 53.59 20.82 53.54 20.54 53.5 19.69 53.53 19.32 53.56 19.12 53.59 18.92 53.63 18.75 53.66 18.59 53.7 18.47 53.73 18.3 53.76 18.18 53.8 18.06 53.84 17.98 53.87 17.85 53.91 17.77 53.95 17.65 53.98 17.56 54.02 17.48 54.06 17.36 54.09 17.28 54.13 17.19 54.17 17.11 54.2 17.03 54.24 16.95 54.28 16.86 54.32 16.78 54.35 16.74 54.39 16.66 54.43 16.57 54.47 16.49 54.5 16.45 54.54 16.37 54.58 16.28 54.62 16.24 54.65 16.16 54.69 16.12 54.73 16.04 54.77 15.99 54.81 15.91 54.85 15.87 54.88 15.83 54.92 15.74 54.96 15.7 55 15.62 55.04 15.58 55.08 15.54 55.12 15.49 55.15 15.41 55.19 15.37 55.23 15.33 55.27 15.28 55.31 15.2 55.35 15.16 55.38 15.12 55.42 15.08 55.46 15.03 55.5 14.99 55.54 14.95 55.58 14.91 55.62 14.86 55.66 14.82 55.69 14.78 55.73 14.74 55.77 14.7 55.81 14.65 55.85 14.61 55.89 14.57 55.93 14.53 55.97 14.49 56.01 14.44 56.04 14.4 56.13 14.36 56.16 14.32 56.2 14.27 56.24 14.23 56.32 14.19 56.36 14.15 56.4 14.1 56.48 14.06 56.56 14.02 56.76 13.97 56.96 13.92 57.16 13.87 57.4 13.82 57.65 13.77 57.89 13.72 58.13 13.67 58.41 13.61 58.69 13.56 59.02 13.51 59.38 13.45 59.78 13.39 60.03 13.34 60.11 13.3 60.14 13.26 60.18 13.21 60.22 13.17 60.26 13.13 60.3 13.09 60.34 13.05 60.38 13 60.42 12.96 60.46 12.92 60.5 12.88 60.53 12.83 60.57 12.79 60.61 12.75 60.65 12.71 60.69 12.63 60.73 12.58 60.77 12.54 60.8 12.5 60.84 12.46 60.88 12.38 60.92 12.33 60.96 12.29 61 12.25 61.04 12.21 61.08 12.17 61.11 12.12 61.15 12.08 61.19 12.04 61.23 11.96 61.27 11.91 61.31 11.87 61.3 11.83 60.82 11.85 "/><path fill="#F48120" d="M85.82 1.15l-0.21 0.07 -0.28 0.07 -0.21 0.07L84.9 1.43 84.69 1.5l-0.21 0.07 -0.21 0.07 -0.21 0.07 -0.21 0.07 -0.21 0.07 -0.21 0.07 -0.21 0.07 -0.21 0.07 -0.21 0.07 -0.14 0.07L82.43 2.27l-0.21 0.07 -0.14 0.07 -0.21 0.07 -0.21 0.07 -0.14 0.07L81.3 2.7l-0.14 0.07 -0.21 0.07 -0.14 0.07 -0.21 0.07 -0.14 0.07 -0.21 0.07L80.1 3.19l-0.21 0.07 -0.14 0.07 -0.14 0.07 -0.21 0.07L79.25 3.54l-0.14 0.07L78.9 3.68l-0.14 0.07 -0.14 0.07 -0.21 0.07 -0.14 0.07 -0.14 0.07 -0.14 0.07 -0.21 0.07 -0.14 0.07 -0.14 0.07 -0.14 0.07 -0.21 0.07 -0.14 0.07 -0.14 0.07 -0.14 0.07 -0.14 0.07 -0.21 0.07 -0.14 0.07 -0.14 0.07 -0.14 0.07 -0.14 0.07 -0.14 0.07 -0.21 0.07 -0.14 0.07 -0.14 0.07 -0.14 0.07L74.87 5.51l-0.14 0.07 -0.14 0.07 -0.21 0.07 -0.14 0.07 -0.14 0.07 -0.14 0.07L73.81 6 73.67 6.07l-0.14 0.07 -0.21 0.07 -0.14 0.07L73.03 6.35l-0.14 0.07 -0.14 0.07L72.61 6.56l-0.21 0.07 -0.14 0.07 -0.07 0.07v0.07l0.07 0.14 0.07 0.14 0.07 0.14 0.07 0.21 0.07 0.14h0.14l0.14-0.07h0.28l0.14 0.07 0.21 0.07 0.14 0.07 0.14 0.07 0.21 0.07 0.14 0.07 0.14 0.07 0.21 0.07 0.14 0.07 0.14 0.07 0.21 0.07 0.14 0.07 0.14 0.07 0.21 0.07 0.14 0.07 0.14 0.07 0.07 0.07 0.07 0.07 0.07 0.07 0.07 0.07h0.14l0.07-0.07 0.07-0.07 0.07-0.07 0.07-0.07 0.07-0.07 0.07-0.07 0.07-0.07 0.07-0.07 0.14-0.07 0.07-0.07 0.07-0.07 0.07-0.07 0.14-0.07 0.07-0.07 0.28-0.07 0.21-0.07 0.14-0.07 0.21-0.07 0.14-0.07 0.14-0.07 0.21-0.07 0.14-0.07 0.14-0.07 0.14-0.07 0.28-0.07 0.28-0.07 0.21-0.07 0.28-0.07 0.21-0.07 0.21-0.07 0.21-0.07 0.14-0.07 0.21-0.07L81.3 6.56l0.14-0.07 0.21-0.07 0.14-0.07 0.14-0.07 0.14-0.07 0.14-0.07 0.14-0.07L82.5 6l0.14-0.07 0.14-0.07 0.14-0.07 0.14-0.07 0.14-0.07 0.14-0.07 0.07-0.07 0.14-0.07 0.07-0.07 0.14-0.07 0.14-0.07V4.95l-0.07-0.14 -0.07-0.14v-0.07l0.14-0.07 0.14-0.07 0.21-0.07v-0.21l-0.07-0.14 -0.07-0.14 -0.07-0.21L83.98 3.54H83.7l-0.14 0.07 -0.21 0.07 0.14-0.07 0.14-0.07 0.07-0.07 0.14-0.07 0.14-0.07 0.14-0.07 0.14-0.07 0.14-0.07 0.14-0.07 0.07-0.07 0.14-0.07 0.14-0.07 0.14-0.07 0.14-0.07 0.14-0.07 0.14-0.07 0.07-0.07 0.14-0.07 0.14-0.07 0.14-0.07 0.14-0.07 0.14-0.07 0.14-0.07 0.14-0.07V1.64L86.45 1.43l-0.07-0.14 -0.07-0.21h-0.21L85.82 1.15zM83.35 3.68l-0.14 0.07L83.35 3.68zM83.21 3.75l-0.15 0.04L83.21 3.75z"/><polygon fill="#F48120" points="78.26 10.92 77.77 10.99 77.41 11.06 77.13 11.13 76.92 11.2 76.71 11.27 76.57 11.34 76.35 11.41 76.21 11.48 76.07 11.55 75.93 11.62 75.58 11.69 75.29 11.76 74.94 11.83 74.66 11.9 74.31 11.98 74.02 12.05 73.74 12.12 73.46 12.19 73.18 12.26 72.89 12.33 72.61 12.4 72.33 12.47 72.05 12.54 71.83 12.61 71.55 12.68 71.34 12.75 71.06 12.82 70.85 12.89 70.63 12.96 70.35 13.03 70.14 13.1 69.93 13.17 69.72 13.24 69.5 13.31 69.22 13.38 69.01 13.45 68.8 13.52 68.58 13.59 68.44 13.66 68.23 13.73 68.02 13.8 67.81 13.87 67.6 13.94 67.38 14.01 67.24 14.08 67.03 14.15 66.82 14.22 66.68 14.29 66.47 14.37 66.25 14.44 66.11 14.51 65.9 14.58 65.76 14.65 65.55 14.72 65.41 14.79 65.19 14.86 65.05 14.93 64.84 15 64.7 15.07 64.49 15.14 64.35 15.21 64.21 15.28 63.99 15.35 63.85 15.42 63.71 15.49 63.5 15.56 63.36 15.63 63.22 15.7 63.08 15.77 62.86 15.84 62.72 15.91 62.58 15.98 62.44 16.05 62.3 16.12 62.09 16.19 61.95 16.26 61.81 16.33 61.66 16.4 61.52 16.47 61.38 16.54 61.24 16.61 61.1 16.68 60.96 16.75 60.82 16.83 60.68 16.9 60.53 16.97 60.39 17.04 60.32 17.11 60.18 17.18 60.04 17.25 59.9 17.32 59.76 17.39 59.62 17.46 59.47 17.53 59.33 17.6 59.26 17.67 59.12 17.74 58.98 17.81 58.84 17.88 58.77 17.95 58.63 18.02 58.49 18.09 58.34 18.16 58.27 18.23 58.13 18.3 57.99 18.37 57.85 18.44 57.78 18.51 57.64 18.58 57.5 18.65 57.43 18.72 57.29 18.79 57.14 18.86 57 18.93 56.93 19 56.79 19.08 56.72 19.15 56.58 19.22 56.44 19.29 56.37 19.36 56.23 19.43 56.08 19.5 56.01 19.57 55.87 19.64 55.73 19.71 55.66 19.78 55.52 19.85 55.45 19.92 55.31 19.99 55.17 20.06 55.09 20.13 54.95 20.2 54.88 20.27 54.74 20.34 54.67 20.41 54.53 20.48 54.39 20.55 54.32 20.62 54.18 20.69 54.11 20.76 53.96 20.83 53.89 20.9 53.75 20.97 53.68 21.04 53.54 21.11 53.47 21.18 53.33 21.25 53.26 21.32 53.12 21.4 52.98 21.47 52.91 21.54 52.76 21.61 52.69 21.68 52.55 21.75 52.48 21.82 52.34 21.89 52.27 21.96 52.13 22.03 52.06 22.1 51.92 22.17 51.85 22.24 51.71 22.31 51.63 22.38 51.49 22.45 51.42 22.52 51.28 22.59 51.21 22.66 51.07 22.73 51 22.8 50.86 22.87 50.79 22.94 50.65 23.01 50.58 23.08 50.43 23.15 50.36 23.22 50.29 23.29 50.15 23.36 50.08 23.43 49.94 23.5 49.87 23.57 49.73 23.65 49.66 23.71 49.52 23.79 49.44 23.85 49.3 23.93 49.23 24 49.09 24.07 49.02 24.14 48.88 24.21 48.81 24.28 48.67 24.35 48.6 24.42 48.46 24.49 48.39 24.56 48.24 24.63 48.17 24.7 48.1 24.77 47.96 24.84 47.89 24.91 47.75 24.98 47.68 25.05 47.54 25.12 47.47 25.19 47.33 25.26 47.25 25.33 47.11 25.4 47.04 25.47 46.9 25.54 46.83 25.61 46.69 25.68 46.62 25.75 46.48 25.82 46.41 25.89 46.27 25.96 46.2 26.03 46.05 26.1 45.98 26.17 45.84 26.25 45.77 26.31 45.63 26.39 45.56 26.46 45.42 26.53 45.35 26.6 45.21 26.67 45.14 26.74 45 26.81 44.92 26.88 44.78 26.95 44.71 27.02 44.57 27.09 44.5 27.16 44.43 27.23 44.36 27.3 44.29 27.37 44.22 27.44 44.15 27.51 44.08 27.58 44.01 27.65 43.94 27.72 43.87 27.79 43.79 27.86 43.72 27.93 43.65 28 43.58 28.14 43.51 28.21 43.44 28.28 43.37 28.35 43.3 28.42 43.23 28.49 43.16 28.64 43.09 28.71 43.02 28.77 42.95 28.85 42.88 28.92 42.81 28.99 42.73 29.06 42.66 29.13 42.59 29.2 42.52 29.27 42.45 29.34 42.38 29.41 42.31 29.48 42.24 29.55 42.24 29.62 42.45 29.62 42.59 29.55 42.73 29.48 42.88 29.41 43.09 29.34 43.23 29.27 43.44 29.2 43.58 29.13 43.79 29.06 43.94 28.99 44.15 28.92 44.36 28.85 44.5 28.77 44.71 28.71 44.92 28.64 45.14 28.57 45.28 28.49 45.35 28.42 45.42 28.35 45.49 28.28 45.56 28.21 45.63 28.14 45.7 28.07 45.77 28 45.84 27.93 45.91 27.86 45.98 27.79 46.05 27.72 46.13 27.65 46.2 27.51 46.27 27.44 46.34 27.37 46.41 27.3 46.48 27.16 46.55 27.09 46.62 27.02 46.69 26.95 46.76 26.81 46.83 26.74 46.9 26.67 46.97 26.6 47.04 26.53 47.11 26.46 47.25 26.39 47.33 26.31 47.47 26.25 47.54 26.17 47.61 26.1 47.75 26.03 47.82 25.96 47.96 25.89 48.03 25.82 48.17 25.75 48.24 25.68 48.39 25.61 48.46 25.54 48.6 25.47 48.67 25.4 48.81 25.33 48.88 25.26 49.02 25.19 49.09 25.12 49.23 25.05 49.3 24.98 49.44 24.91 49.52 24.84 49.66 24.77 49.73 24.7 49.87 24.63 49.94 24.56 50.08 24.49 50.15 24.42 50.29 24.35 50.36 24.28 50.5 24.21 50.58 24.14 50.72 24.07 50.79 24 50.93 23.93 51 23.85 51.14 23.79 51.21 23.71 51.35 23.65 51.49 23.57 51.56 23.5 51.71 23.43 51.78 23.36 51.92 23.29 51.99 23.22 52.13 23.15 52.2 23.08 52.34 23.01 52.48 22.94 52.55 22.87 52.69 22.8 52.76 22.73 52.91 22.66 52.98 22.59 53.12 22.52 53.26 22.45 53.33 22.38 53.47 22.31 53.54 22.24 53.68 22.17 53.82 22.1 53.89 22.03 54.04 21.96 54.18 21.89 54.25 21.82 54.39 21.75 54.46 21.68 54.6 21.61 54.74 21.54 54.81 21.47 54.95 21.4 55.09 21.32 55.17 21.25 55.31 21.18 55.45 21.11 55.59 21.04 55.66 20.97 55.8 20.9 55.94 20.83 56.01 20.76 56.15 20.69 56.3 20.62 56.44 20.55 56.58 20.48 56.65 20.41 56.79 20.34 56.93 20.27 57.07 20.2 57.21 20.13 57.29 20.06 57.43 19.99 57.57 19.92 57.71 19.85 57.85 19.78 57.99 19.71 58.13 19.64 58.2 19.57 58.34 19.5 58.49 19.43 58.63 19.36 58.77 19.29 58.91 19.22 59.05 19.15 59.19 19.08 59.33 19 59.47 18.93 59.62 18.86 59.83 18.79 59.97 18.72 60.11 18.65 60.25 18.58 60.39 18.51 60.53 18.44 60.75 18.37 60.89 18.3 61.03 18.23 61.17 18.16 61.38 18.09 61.52 18.02 61.73 17.95 61.88 17.88 62.02 17.81 62.23 17.74 62.37 17.67 62.58 17.6 62.72 17.53 62.94 17.46 63.08 17.39 63.29 17.32 63.43 17.25 63.64 17.18 63.78 17.11 63.99 17.04 64.21 16.97 64.35 16.9 64.56 16.83 64.77 16.75 64.98 16.68 65.12 16.61 65.34 16.54 65.55 16.47 65.76 16.4 65.97 16.33 66.18 16.26 66.4 16.19 66.61 16.12 66.82 16.05 67.03 15.98 67.24 15.91 67.46 15.84 67.67 15.77 67.95 15.7 68.16 15.63 68.37 15.56 68.66 15.49 68.87 15.42 69.15 15.35 69.36 15.28 69.65 15.21 69.86 15.14 70.14 15.07 70.42 15 70.7 14.93 70.99 14.86 71.27 14.79 71.55 14.72 71.83 14.65 72.12 14.58 72.19 14.58 72.12 14.65 71.98 14.72 71.91 14.79 71.83 14.86 71.76 14.93 71.69 15 71.62 15.07 71.55 15.14 71.48 15.21 71.41 15.28 71.34 15.35 71.27 15.42 71.2 15.49 71.13 15.56 71.06 15.63 70.99 15.7 70.92 15.77 70.85 15.84 70.77 15.91 70.7 15.98 70.63 16.05 70.56 16.12 70.49 16.19 70.42 16.33 70.35 16.4 70.28 16.47 70.21 16.54 70.14 16.61 70.07 16.68 70 16.75 69.93 16.83 69.86 16.9 69.79 16.97 69.72 17.04 69.65 17.18 69.57 17.25 69.5 17.32 69.43 17.39 69.36 17.46 69.29 17.53 69.22 17.67 69.15 17.74 69.08 17.81 69.01 17.88 68.94 18.02 68.87 18.09 68.8 18.16 68.73 18.23 68.66 18.37 68.58 18.44 68.51 18.51 68.44 18.65 68.37 18.72 68.3 18.86 68.23 18.93 68.16 19 68.09 19.15 68.02 19.22 67.95 19.36 67.88 19.43 67.81 19.57 67.74 19.71 67.67 19.78 67.6 19.92 67.53 20.06 67.46 20.13 67.38 20.27 67.31 20.41 67.24 20.48 67.17 20.62 67.1 20.76 67.03 20.9 66.96 21.04 66.89 21.18 66.82 21.32 66.75 21.4 66.68 21.54 66.61 21.68 66.54 21.89 66.47 22.03 66.4 22.17 66.33 22.31 66.25 22.45 66.18 22.59 66.11 22.8 66.04 22.94 65.97 23.15 65.9 23.29 65.83 23.5 65.76 23.71 65.69 23.93 65.62 24.14 65.55 24.35 65.48 24.56 65.41 24.84 65.34 25.05 65.27 25.4 65.19 25.75 65.12 26.17 65.05 26.95 65.05 27.58 65.12 28.28 65.19 28.64 65.27 28.85 65.34 29.13 65.41 29.27 65.48 29.48 65.55 29.62 65.62 29.76 65.69 29.9 65.76 30.04 65.83 30.11 65.9 30.25 65.97 30.32 66.04 30.39 66.11 30.53 66.18 30.6 66.25 30.67 66.33 30.74 66.4 30.81 66.47 30.89 66.54 30.95 66.61 31.03 66.75 31.1 66.82 31.17 66.89 31.24 66.96 31.31 67.1 31.38 67.17 31.45 67.31 31.52 67.46 31.59 67.6 31.66 67.67 31.73 67.81 31.8 68.02 31.87 68.16 31.94 68.3 32.01 68.51 32.08 68.73 32.15 68.94 32.22 69.15 32.29 69.43 32.36 69.65 32.43 70 32.5 70.28 32.57 70.63 32.64 70.92 32.71 71.27 32.78 71.62 32.85 71.98 32.92 72.33 32.99 72.61 33.06 72.96 33.13 73.25 33.2 73.6 33.28 73.88 33.35 74.17 33.42 74.45 33.49 74.73 33.56 75.01 33.63 75.22 33.7 75.44 33.77 75.72 33.84 75.93 33.91 76.14 33.98 76.28 34.05 76.5 34.12 76.71 34.19 76.85 34.26 77.06 34.33 77.2 34.4 77.34 34.47 77.48 34.54 77.63 34.61 77.77 34.68 77.91 34.75 78.05 34.82 78.19 34.89 78.26 34.96 78.4 35.03 78.47 35.1 78.61 35.17 78.69 35.24 78.83 35.31 78.9 35.39 78.97 35.45 79.11 35.52 79.18 35.6 79.25 35.66 79.32 35.73 79.39 35.81 79.46 35.87 79.53 35.95 79.6 36.02 79.67 36.09 79.74 36.16 79.82 36.23 79.89 36.3 79.96 36.37 80.03 36.44 80.1 36.58 80.17 36.65 80.24 36.79 80.31 36.86 80.38 37 80.45 37.07 80.52 37.21 80.59 37.35 80.66 37.49 80.73 37.63 80.8 37.84 80.88 37.98 80.94 38.2 81.02 38.48 81.09 38.69 81.16 39.04 81.23 39.53 81.23 41.78 81.16 42.34 81.09 42.83 81.02 43.19 80.94 43.54 80.88 43.82 80.8 44.17 80.73 44.38 80.66 44.66 80.59 44.94 80.52 45.15 80.45 45.37 80.38 45.58 80.31 45.79 80.24 46 80.17 46.21 80.1 46.42 80.03 46.63 79.96 46.77 79.89 46.98 79.82 47.12 79.74 47.34 79.67 47.48 79.6 47.69 79.53 47.83 79.46 47.97 79.39 48.18 79.32 48.32 79.25 48.46 79.18 48.6 79.11 48.74 79.04 48.88 78.97 49.02 78.9 49.16 78.83 49.3 78.76 49.44 78.69 49.58 78.61 49.73 78.54 49.87 78.47 50.01 78.4 50.15 78.33 50.29 78.26 50.43 78.19 50.57 78.12 50.64 78.05 50.78 77.98 50.92 77.91 51.06 77.84 51.13 77.77 51.27 77.69 51.41 77.63 51.48 77.56 51.62 77.48 51.76 77.41 51.83 77.34 51.98 77.27 52.11 77.2 52.19 77.13 52.33 77.06 52.4 76.99 52.54 76.92 52.61 76.85 52.75 76.78 52.89 76.71 52.96 76.64 53.1 76.57 53.17 76.5 53.24 76.43 53.38 76.35 53.45 76.28 53.59 76.21 53.66 76.14 53.8 76.07 53.87 76 54.01 75.93 54.08 75.86 54.15 75.79 54.29 75.72 54.36 75.65 54.44 75.58 54.58 75.51 54.65 75.44 54.72 75.36 54.86 75.29 54.93 75.22 55 75.15 55.14 75.08 55.21 75.01 55.28 74.94 55.42 74.87 55.49 74.8 55.56 74.73 55.63 74.66 55.77 74.59 55.84 74.52 55.91 74.45 55.98 74.38 56.05 74.31 56.19 74.24 56.26 74.17 56.33 74.09 56.4 74.02 56.47 73.95 56.61 73.88 56.68 73.81 56.75 73.74 56.82 73.67 56.9 73.6 56.97 73.53 57.03 73.46 57.18 73.39 57.25 73.32 57.32 73.25 57.39 73.18 57.46 73.11 57.53 73.04 57.6 72.96 57.67 72.89 57.74 72.82 57.81 72.75 57.95 72.68 58.02 72.61 58.09 72.54 58.16 72.47 58.23 72.4 58.3 72.33 58.37 72.26 58.44 72.19 58.51 72.12 58.58 72.05 58.65 71.98 58.72 71.91 58.79 71.83 58.86 71.76 58.94 71.69 59 71.62 59.07 71.55 59.15 71.48 59.21 71.41 59.28 71.34 59.36 71.27 59.43 71.2 59.5 71.13 59.56 70.99 59.64 70.92 59.71 70.85 59.78 70.77 59.85 70.7 59.92 70.63 59.99 70.56 60.06 70.49 60.13 70.42 60.2 70.35 60.27 70.21 60.34 70.14 60.41 70.07 60.48 70 60.55 69.93 60.62 69.86 60.69 69.72 60.76 69.65 60.83 69.57 60.9 69.5 60.97 69.43 61.04 69.36 61.11 69.22 61.18 69.15 61.25 69.08 61.32 69.01 61.39 68.87 61.46 68.8 61.54 68.73 61.6 68.66 61.68 68.51 61.74 68.44 61.81 68.37 61.89 68.3 61.96 68.23 62.03 68.16 62.1 68.09 62.17 68.02 62.24 67.95 62.31 67.88 62.38 67.81 62.45 67.74 62.52 67.67 62.66 67.6 62.73 67.53 62.8 67.46 62.87 67.38 62.94 67.31 63.01 67.24 63.08 67.17 63.22 67.1 63.29 67.03 63.36 66.96 63.43 66.89 63.5 66.82 63.57 66.75 63.64 66.68 63.71 66.61 63.78 66.54 63.93 66.4 63.99 66.33 64.06 66.33 64.14 66.54 64.14 66.61 64.06 66.68 63.99 66.75 63.93 66.89 63.85 66.96 63.78 67.03 63.71 67.1 63.64 67.24 63.57 67.31 63.5 67.38 63.43 67.46 63.36 67.53 63.29 67.67 63.22 67.74 63.15 67.81 63.08 67.88 63.01 67.95 62.94 68.09 62.87 68.16 62.8 68.23 62.73 68.3 62.66 68.37 62.59 68.44 62.52 68.51 62.45 68.66 62.38 68.73 62.31 68.8 62.24 68.87 62.17 68.94 62.1 69.01 62.03 69.08 61.96 69.22 61.89 69.29 61.81 69.36 61.74 69.43 61.68 69.5 61.6 69.57 61.54 69.65 61.46 69.72 61.39 69.79 61.32 69.86 61.25 70 61.18 70.07 61.11 70.14 61.04 70.21 60.97 70.28 60.9 70.35 60.83 70.42 60.76 70.49 60.69 70.56 60.62 70.63 60.55 70.7 60.48 70.77 60.41 70.85 60.34 70.92 60.27 70.99 60.2 71.06 60.13 71.13 60.06 71.2 59.99 71.27 59.92 71.34 59.85 71.41 59.78 71.48 59.71 71.55 59.64 71.62 59.56 71.69 59.5 71.76 59.43 71.83 59.36 71.91 59.28 71.98 59.21 72.05 59.15 72.12 59.07 72.19 59 72.26 58.94 72.33 58.86 72.4 58.79 72.47 58.72 72.54 58.65 72.61 58.58 72.68 58.51 72.75 58.44 72.82 58.37 72.89 58.3 72.96 58.23 73.04 58.16 73.11 58.09 73.18 58.02 73.25 57.95 73.32 57.88 73.39 57.81 73.46 57.74 73.53 57.6 73.6 57.53 73.67 57.46 73.74 57.39 73.81 57.32 73.88 57.25 73.95 57.18 74.02 57.11 74.09 57.03 74.17 56.97 74.24 56.82 74.31 56.75 74.38 56.68 74.45 56.61 74.52 56.54 74.59 56.47 74.66 56.4 74.73 56.26 74.8 56.19 74.87 56.12 74.94 56.05 75.01 55.98 75.08 55.91 75.15 55.84 75.22 55.7 75.29 55.63 75.36 55.56 75.44 55.49 75.51 55.42 75.58 55.28 75.65 55.21 75.72 55.14 75.79 55.07 75.86 55 75.93 54.86 76 54.79 76.07 54.72 76.14 54.65 76.21 54.58 76.28 54.44 76.35 54.36 76.43 54.29 76.5 54.22 76.57 54.08 76.64 54.01 76.71 53.94 76.78 53.8 76.85 53.73 76.92 53.66 76.99 53.59 77.06 53.45 77.13 53.38 77.2 53.31 77.27 53.17 77.34 53.1 77.41 53.03 77.48 52.89 77.56 52.82 77.63 52.75 77.69 52.61 77.77 52.54 77.84 52.47 77.91 52.33 77.98 52.26 78.05 52.19 78.12 52.04 78.19 51.98 78.26 51.83 78.33 51.76 78.4 51.69 78.47 51.55 78.54 51.48 78.61 51.34 78.69 51.27 78.76 51.13 78.83 51.06 78.9 50.99 78.97 50.85 79.04 50.78 79.11 50.64 79.18 50.57 79.25 50.43 79.32 50.36 79.39 50.22 79.46 50.15 79.53 50.01 79.6 49.94 79.67 49.79 79.74 49.65 79.82 49.58 79.89 49.44 79.96 49.37 80.03 49.23 80.1 49.09 80.17 49.02 80.24 48.88 80.31 48.74 80.38 48.67 80.45 48.53 80.52 48.39 80.59 48.32 80.66 48.18 80.73 48.04 80.8 47.97 80.88 47.83 80.94 47.69 81.02 47.55 81.09 47.4 81.16 47.34 81.23 47.19 81.3 47.05 81.37 46.91 81.44 46.77 81.51 46.63 81.58 46.49 81.65 46.35 81.72 46.21 81.79 46.07 81.86 45.93 81.93 45.79 82 45.65 82.08 45.51 82.15 45.37 82.22 45.23 82.29 45.08 82.36 44.87 82.43 44.73 82.5 44.59 82.57 44.38 82.64 44.24 82.71 44.1 82.78 43.89 82.85 43.75 82.92 43.54 82.99 43.33 83.06 43.12 83.14 42.98 83.21 42.77 83.28 42.56 83.35 42.27 83.42 42.06 83.49 41.85 83.56 41.57 83.63 41.29 83.7 41.01 83.77 40.65 83.84 40.31 83.91 39.88 83.98 39.32 83.98 37.07 83.91 36.58 83.84 36.3 83.77 36.02 83.7 35.73 83.63 35.52 83.56 35.39 83.49 35.17 83.42 35.03 83.35 34.89 83.28 34.75 83.21 34.61 83.14 34.47 83.06 34.33 82.99 34.26 82.92 34.12 82.85 34.05 82.78 33.98 82.71 33.84 82.64 33.77 82.57 33.7 82.5 33.63 82.43 33.49 82.36 33.42 82.29 33.35 82.22 33.28 82.15 33.2 82.08 33.13 82 33.06 81.86 32.99 81.79 32.92 81.72 32.85 81.65 32.78 81.58 32.71 81.44 32.64 81.37 32.57 81.3 32.5 81.16 32.43 81.09 32.36 80.94 32.29 80.8 32.22 80.73 32.15 80.59 32.08 80.45 32.01 80.31 31.94 80.17 31.87 80.03 31.8 79.89 31.73 79.74 31.66 79.53 31.59 79.39 31.52 79.18 31.45 79.04 31.38 78.83 31.31 78.61 31.24 78.4 31.17 78.12 31.1 77.91 31.03 77.63 30.95 77.34 30.89 77.06 30.81 76.78 30.74 76.5 30.67 76.14 30.6 75.79 30.53 75.44 30.46 75.08 30.39 74.73 30.32 74.31 30.25 73.95 30.18 73.53 30.11 73.11 30.04 72.75 29.97 72.47 29.9 72.12 29.83 71.83 29.76 71.55 29.69 71.34 29.62 71.13 29.55 70.92 29.48 70.7 29.41 70.49 29.34 70.35 29.27 70.21 29.2 70.07 29.13 69.93 29.06 69.79 28.99 69.65 28.92 69.57 28.85 69.43 28.77 69.36 28.71 69.29 28.64 69.15 28.57 69.08 28.49 69.01 28.42 68.94 28.35 68.87 28.28 68.8 28.21 68.73 28.14 68.66 28 68.58 27.93 68.51 27.79 68.44 27.72 68.37 27.58 68.3 27.44 68.23 27.3 68.16 27.16 68.09 26.95 68.02 26.74 67.95 26.53 67.88 26.25 67.81 25.89 67.74 25.4 67.74 23.93 67.81 23.29 67.88 22.94 67.95 22.59 68.02 22.31 68.09 22.03 68.16 21.82 68.23 21.54 68.3 21.32 68.37 21.11 68.44 20.97 68.51 20.76 68.58 20.62 68.66 20.41 68.73 20.27 68.8 20.13 68.87 19.92 68.94 19.78 69.01 19.64 69.08 19.5 69.15 19.36 69.22 19.22 69.29 19.08 69.36 18.93 69.43 18.86 69.5 18.72 69.57 18.58 69.65 18.44 69.72 18.37 69.79 18.23 69.86 18.09 69.93 18.02 70 17.88 70.07 17.81 70.14 17.67 70.21 17.6 70.28 17.46 70.35 17.39 70.42 17.32 70.49 17.18 70.56 17.11 70.63 16.97 70.7 16.9 70.77 16.83 70.85 16.75 70.92 16.61 70.99 16.54 71.06 16.47 71.13 16.4 71.2 16.26 71.27 16.19 71.34 16.12 71.41 16.05 71.48 15.98 71.55 15.91 71.62 15.84 71.69 15.77 71.76 15.7 71.83 15.63 71.91 15.56 71.98 15.49 72.05 15.42 72.12 15.35 72.19 15.28 72.26 15.21 72.33 15.14 72.4 15.07 72.47 15 72.54 14.93 72.68 14.86 72.75 14.79 72.82 14.72 72.89 14.65 73.04 14.58 73.11 14.51 73.18 14.44 73.32 14.37 73.46 14.29 73.81 14.22 74.17 14.15 74.52 14.08 74.94 14.01 75.36 13.94 75.79 13.87 76.21 13.8 76.71 13.73 77.2 13.66 77.77 13.59 78.4 13.52 79.11 13.45 79.53 13.38 79.67 13.31 79.74 13.24 79.82 13.17 79.89 13.1 79.96 13.03 80.03 12.96 80.1 12.89 80.17 12.82 80.24 12.75 80.31 12.68 80.38 12.61 80.45 12.54 80.52 12.47 80.59 12.4 80.66 12.33 80.73 12.19 80.8 12.12 80.88 12.05 80.94 11.98 81.02 11.9 81.09 11.76 81.16 11.69 81.23 11.62 81.3 11.55 81.37 11.48 81.44 11.41 81.51 11.34 81.58 11.27 81.65 11.2 81.72 11.06 81.79 10.99 81.86 10.92 81.86 10.85 81.02 10.85 "/><path fill="#FFFFFF" d="M186.74 51.72h-10.4c-3.41 0-6.49-0.56-9.24-1.69 -3.8-1.58-5.7-3.94-5.7-7.07 0-3.1 1.9-5.43 5.7-6.98 2.78-1.15 5.84-1.73 9.2-1.73h10.45c0.72 0 1.43 0.11 2.12 0.32 0.97 0.31 1.46 0.74 1.46 1.32 0 0.58-0.48 1.02-1.46 1.32 -0.72 0.21-1.43 0.32-2.12 0.32h-7.24c-2.14 0-3.98 0.35-5.54 1.05 -2.14 0.94-3.21 2.42-3.21 4.43 0 2.01 1.07 3.48 3.21 4.43 1.52 0.67 3.37 1 5.54 1h7.28c0.72 0 1.42 0.11 2.08 0.32 0.97 0.31 1.46 0.75 1.46 1.32 0 0.55-0.5 0.99-1.5 1.32C188.13 51.61 187.43 51.72 186.74 51.72M148.53 40.04v-1.14c0-0.55-0.39-0.96-1.16-1.23 -0.56-0.21-1.14-0.32-1.75-0.32h-12.78c-0.72 0-1.42-0.09-2.08-0.27 -0.97-0.27-1.46-0.7-1.46-1.28s0.47-1 1.42-1.28c0.64-0.21 1.32-0.32 2.04-0.32h15.94c2 0 3.93 0.35 5.79 1.05 2.53 0.94 3.79 2.31 3.79 4.11v9.85c0 0.85-0.65 1.51-1.95 1.96 -0.94 0.34-1.92 0.5-2.91 0.5s-1.97-0.17-2.91-0.5c-1.3-0.43-1.96-1.08-1.96-1.96v-4.52c0-0.52-0.39-0.93-1.16-1.23 -0.56-0.21-1.14-0.32-1.75-0.32h-7.2c-0.61 0-1.19 0.11-1.75 0.32 -0.78 0.31-1.16 0.72-1.16 1.23v2.15c0 0.52 0.39 0.93 1.17 1.23 0.56 0.21 1.14 0.32 1.75 0.32h3.54c0.69 0 1.4 0.1 2.12 0.32 0.97 0.3 1.46 0.75 1.46 1.32 0 0.55-0.49 0.99-1.46 1.32 -0.72 0.21-1.43 0.32-2.12 0.32h-6.62c-2 0-3.93-0.35-5.78-1.05 -2.53-0.94-3.79-2.31-3.79-4.11v-1.37c0-1.76 1.26-3.13 3.79-4.1 1.86-0.67 3.79-1 5.79-1H148.53zM103.99 37.94l10.28 12.5c0.69 0.85 2 1.28 3.91 1.28 1.08 0 2.11-0.18 3.08-0.55 1.36-0.45 2.04-1.15 2.04-2.1 0-0.36-0.15-0.73-0.46-1.1l-10.24-12.5c-0.69-0.85-2-1.28-3.91-1.28 -1.08 0-2.11 0.18-3.08 0.55 -1.36 0.46-2.04 1.16-2.04 2.1C103.58 37.24 103.72 37.61 103.99 37.94zM81.06 51.35c0.8 0.24 1.67 0.37 2.58 0.37 1.97 0 3.29-0.43 3.96-1.28l7.83-9.99 4.5 5.34c0.5 0.61 1.37 0.91 2.62 0.91 0.69 0 1.37-0.12 2.04-0.36 0.89-0.3 1.33-0.76 1.33-1.37 0-0.31-0.1-0.56-0.29-0.77l-7.87-8.58c-0.17-0.15-0.37-0.29-0.62-0.41 -1.03-0.67-2.36-1-3.99-1 -1.91 0-3.22 0.43-3.91 1.28l-10.24 12.5c-0.3 0.36-0.46 0.73-0.46 1.1C78.52 50.08 79.37 50.84 81.06 51.35zM53.13 51.31c-1.75-0.52-2.62-1.28-2.62-2.28 0-0.42 0.19-0.8 0.58-1.14L63.2 37.35h-8.53c-1.47 0-2.48-0.05-3.04-0.14 -1-0.24-1.5-0.68-1.5-1.32 0-1.15 1.51-1.73 4.54-1.73H68.99c1.61 0 2.94 0.26 4 0.78 1.05 0.52 1.58 1.16 1.58 1.92 0 0.43-0.19 0.81-0.57 1.15L61.87 48.48h9.62c1.47 0 2.94 0.38 4.41 1.14 0.08 0.06 0.13 0.24 0.13 0.55 0 0.67-0.5 1.11-1.5 1.32 -0.55 0.12-1.57 0.18-3.04 0.18H55.63C54.77 51.67 53.94 51.55 53.13 51.31zM41.52 51.67c-1 0-1.97-0.17-2.91-0.5 -1.3-0.43-1.96-1.08-1.96-1.96V36.62c0-0.88 0.65-1.53 1.96-1.96 0.94-0.33 1.92-0.5 2.91-0.5s1.97 0.17 2.91 0.5c1.3 0.43 1.96 1.08 1.96 1.96v12.59c0 0.85-0.65 1.51-1.96 1.96C43.49 51.51 42.52 51.67 41.52 51.67zM23.96 38.44c0-0.73-0.96-1.1-2.89-1.1h-7.16c-1.93 0-2.89 0.37-2.89 1.1v0.41c0 0.73 0.96 1.1 2.89 1.1h7.16c1.93 0 2.89-0.36 2.89-1.09V38.44zM24.12 51.67h-6.62c-0.69 0-1.4-0.11-2.12-0.32 -0.97-0.33-1.46-0.77-1.46-1.32 0-0.58 0.49-1.02 1.46-1.32 0.72-0.21 1.43-0.32 2.12-0.32h3.54c0.61 0 1.19-0.1 1.75-0.32 0.78-0.3 1.17-0.71 1.17-1.23v-2.15c0-0.52-0.39-0.93-1.16-1.23 -0.55-0.21-1.13-0.32-1.73-0.32h-7.16c-0.6 0-1.19 0.11-1.73 0.32 -0.77 0.31-1.16 0.72-1.16 1.23v4.52c0 0.88-0.66 1.53-1.97 1.96 -0.96 0.34-1.93 0.5-2.94 0.5 -1 0-1.98-0.17-2.94-0.5 -1.31-0.43-1.97-1.08-1.97-1.96v-9.85c0-0.03 0.01-0.15 0.04-0.36 0.22-1.67 1.53-2.95 3.95-3.83 1.77-0.64 3.62-0.96 5.56-0.96H22.9c4.09 0 7.04 0.69 8.85 2.05 1.02 0.76 1.53 1.57 1.53 2.42 0 1.43-0.61 2.49-1.83 3.19 1.5 0.94 2.25 2.05 2.25 3.33v1.32c0 1.8-1.26 3.16-3.79 4.11C28.05 51.33 26.12 51.67 24.12 51.67z"/><path fill="#FFFFFF" d="M189.74 18.86v1.16c0 0.19-0.03 0.35-0.1 0.49 -0.07 0.14-0.15 0.25-0.26 0.32 -0.1 0.08-0.24 0.14-0.4 0.18s-0.31 0.07-0.45 0.08c-0.14 0.01-0.3 0.02-0.48 0.02 -0.42 0-0.92-0.05-1.5-0.14V20.41c0.61 0.13 1.12 0.19 1.52 0.19 0.31 0 0.54-0.04 0.7-0.13 0.15-0.09 0.23-0.24 0.23-0.46v-1.01c0-0.11-0.02-0.2-0.07-0.27 -0.05-0.07-0.12-0.12-0.21-0.15 -0.09-0.03-0.18-0.05-0.25-0.05 -0.08-0.01-0.17-0.01-0.28-0.01h-1.51V15.94h2.94v0.53h-2.23v1.55h1.18c0.19 0 0.37 0.02 0.54 0.07 0.16 0.05 0.31 0.13 0.45 0.26C189.67 18.48 189.74 18.65 189.74 18.86M184.01 19.85v-2.67c0-0.37-0.08-0.61-0.25-0.71 -0.16-0.1-0.44-0.15-0.84-0.15 -0.4 0-0.68 0.05-0.84 0.15 -0.16 0.1-0.24 0.34-0.24 0.71v2.67c0 0.34 0.08 0.56 0.25 0.66 0.17 0.1 0.45 0.14 0.84 0.14s0.67-0.05 0.83-0.14C183.92 20.41 184.01 20.19 184.01 19.85zM184.72 17.23v2.59c0 0.23-0.04 0.42-0.11 0.58 -0.07 0.17-0.16 0.29-0.27 0.39 -0.11 0.09-0.24 0.16-0.41 0.22 -0.17 0.05-0.32 0.09-0.48 0.1 -0.15 0.01-0.33 0.02-0.54 0.02 -0.21 0-0.39-0.01-0.54-0.02 -0.15-0.01-0.31-0.04-0.48-0.09 -0.17-0.05-0.31-0.12-0.41-0.21 -0.1-0.09-0.19-0.22-0.26-0.38 -0.07-0.16-0.1-0.36-0.1-0.59v-2.58c0-0.25 0.03-0.46 0.11-0.63 0.07-0.18 0.16-0.31 0.26-0.41 0.1-0.1 0.24-0.17 0.42-0.22 0.17-0.05 0.33-0.08 0.48-0.1 0.14-0.01 0.32-0.02 0.53-0.02 0.22 0 0.4 0.01 0.54 0.02 0.15 0.01 0.31 0.05 0.48 0.1 0.17 0.05 0.31 0.13 0.42 0.22 0.1 0.1 0.19 0.23 0.26 0.4C184.69 16.77 184.72 16.98 184.72 17.23zM178.78 19.85v-2.67c0-0.37-0.08-0.61-0.25-0.71 -0.17-0.1-0.44-0.15-0.84-0.15 -0.4 0-0.69 0.05-0.84 0.15 -0.16 0.1-0.24 0.34-0.24 0.71v2.67c0 0.34 0.08 0.56 0.25 0.66 0.17 0.1 0.45 0.14 0.84 0.14 0.39 0 0.67-0.05 0.83-0.14C178.7 20.41 178.78 20.19 178.78 19.85zM179.5 17.23v2.59c0 0.23-0.04 0.42-0.11 0.58s-0.16 0.29-0.27 0.39c-0.1 0.09-0.24 0.16-0.41 0.22 -0.17 0.05-0.33 0.09-0.48 0.1 -0.15 0.01-0.33 0.02-0.54 0.02 -0.21 0-0.4-0.01-0.55-0.02 -0.15-0.01-0.31-0.04-0.48-0.09 -0.17-0.05-0.31-0.12-0.41-0.21s-0.19-0.22-0.25-0.38c-0.07-0.16-0.1-0.36-0.1-0.59v-2.58c0-0.25 0.04-0.46 0.1-0.63 0.07-0.18 0.16-0.31 0.27-0.41 0.1-0.1 0.24-0.17 0.42-0.22 0.17-0.05 0.33-0.08 0.48-0.1 0.14-0.01 0.32-0.02 0.53-0.02 0.22 0 0.4 0.01 0.54 0.02 0.15 0.01 0.31 0.05 0.48 0.1 0.17 0.05 0.31 0.13 0.42 0.22 0.1 0.1 0.19 0.23 0.26 0.4C179.46 16.77 179.5 16.98 179.5 17.23zM174.18 21.04h-3.42v-0.91c0-0.15 0.03-0.29 0.08-0.42 0.05-0.13 0.11-0.23 0.19-0.32 0.07-0.08 0.17-0.17 0.31-0.26 0.14-0.09 0.25-0.15 0.34-0.2 0.09-0.05 0.23-0.11 0.4-0.18l0.85-0.38c0.34-0.15 0.5-0.38 0.5-0.68v-0.7c0-0.25-0.08-0.41-0.23-0.49 -0.15-0.08-0.41-0.12-0.76-0.12 -0.36 0-0.86 0.06-1.49 0.17v-0.55c0.55-0.1 1.1-0.15 1.65-0.15 0.56 0 0.97 0.08 1.22 0.25 0.25 0.17 0.38 0.45 0.38 0.86v0.83c0 0.28-0.07 0.5-0.22 0.64 -0.15 0.15-0.41 0.31-0.78 0.48L172 19.46c-0.35 0.16-0.52 0.39-0.52 0.69v0.34h2.7V21.04L174.18 21.04zM166.87 18.83v-0.6c0-0.23-0.07-0.39-0.21-0.47 -0.14-0.09-0.38-0.13-0.71-0.13 -0.31 0-0.55 0.04-0.7 0.13 -0.15 0.08-0.23 0.24-0.23 0.48v0.6H166.87zM167.58 19.29h-2.55v0.57c0 0.27 0.09 0.46 0.28 0.57 0.19 0.11 0.47 0.17 0.84 0.17 0.36 0 0.79-0.06 1.28-0.19v0.54c-0.47 0.1-0.93 0.16-1.37 0.16 -1.16 0-1.74-0.39-1.74-1.16v-1.5c0-0.47 0.13-0.8 0.4-1 0.27-0.2 0.69-0.3 1.28-0.3 0.55 0 0.95 0.1 1.21 0.29 0.25 0.19 0.38 0.53 0.38 1.01L167.58 19.29 167.58 19.29zM162.89 21.01c-0.35 0.07-0.75 0.11-1.22 0.11 -0.23 0-0.41 0-0.54-0.01 -0.13-0.01-0.28-0.03-0.44-0.08 -0.16-0.05-0.29-0.11-0.38-0.19 -0.09-0.08-0.16-0.2-0.22-0.36 -0.06-0.16-0.1-0.36-0.1-0.59v-1.4c0-0.21 0.02-0.39 0.06-0.54 0.04-0.15 0.1-0.28 0.18-0.37 0.08-0.09 0.17-0.17 0.26-0.23 0.09-0.06 0.21-0.1 0.37-0.12 0.15-0.02 0.29-0.04 0.41-0.05 0.12-0.01 0.28-0.01 0.48-0.01 0.36 0 0.72 0.04 1.08 0.12v0.52c-0.41-0.1-0.8-0.16-1.17-0.16 -0.39 0-0.65 0.05-0.76 0.14 -0.12 0.09-0.18 0.29-0.18 0.6v1.56c0 0.28 0.07 0.46 0.2 0.55 0.14 0.09 0.41 0.14 0.82 0.14 0.37 0 0.76-0.05 1.15-0.15V21.01L162.89 21.01zM158.25 21.04h-0.71v-2.75c0-0.09-0.01-0.17-0.02-0.23 -0.02-0.06-0.05-0.13-0.1-0.19 -0.05-0.06-0.13-0.11-0.25-0.15 -0.12-0.04-0.27-0.05-0.44-0.05 -0.41 0-0.69 0.04-0.83 0.13 -0.14 0.09-0.21 0.25-0.21 0.49v2.75h-0.71v-3.8h0.71V17.7c0.07-0.36 0.49-0.54 1.25-0.54 0.5 0 0.85 0.09 1.04 0.27 0.19 0.18 0.28 0.45 0.28 0.82V21.04zM153.08 21.04h-0.71v-3.8h0.71V21.04zM153.08 16.6h-0.71v-0.74h0.71V16.6zM150.66 19.31v0.37c0 0.55-0.15 0.92-0.46 1.13 -0.31 0.21-0.79 0.31-1.44 0.31 -0.42 0-0.94-0.04-1.56-0.12v-0.64c0.62 0.13 1.15 0.2 1.6 0.2 0.36 0 0.64-0.04 0.83-0.12 0.19-0.08 0.29-0.24 0.29-0.49v-0.66c0-0.21-0.06-0.37-0.18-0.46 -0.12-0.09-0.34-0.14-0.66-0.14h-0.6c-0.51 0-0.87-0.1-1.07-0.31 -0.2-0.21-0.3-0.51-0.3-0.92v-0.41c0-0.4 0.14-0.7 0.43-0.9 0.29-0.19 0.81-0.29 1.58-0.29 0.37 0 0.81 0.03 1.31 0.09v0.57c-0.58-0.09-1.04-0.13-1.37-0.13 -0.48 0-0.81 0.05-0.97 0.14 -0.16 0.1-0.24 0.26-0.24 0.49v0.58c0 0.18 0.06 0.31 0.19 0.39s0.35 0.12 0.67 0.12h0.61c0.53 0 0.89 0.1 1.08 0.29C150.56 18.59 150.66 18.9 150.66 19.31z"/><path fill="#FFFFFF" d="M188.85 60.18v-2.31c0-0.33-0.09-0.56-0.27-0.68 -0.18-0.12-0.55-0.18-1.11-0.18 -0.53 0-0.87 0.06-1.03 0.18 -0.16 0.12-0.24 0.35-0.24 0.69v2.31c0 0.35 0.09 0.58 0.26 0.69 0.17 0.11 0.52 0.16 1.04 0.16 0.48 0 0.82-0.06 1.04-0.17C188.74 60.74 188.85 60.52 188.85 60.18M189.8 56.45v5.6c0 0.73-0.2 1.21-0.61 1.46 -0.4 0.25-1.01 0.38-1.82 0.38 -0.72 0-1.31-0.04-1.77-0.12v-0.67c0.81 0.1 1.43 0.15 1.85 0.15 0.48 0 0.84-0.08 1.06-0.23 0.22-0.15 0.33-0.41 0.33-0.77v-1.23c-0.02 0.24-0.18 0.41-0.49 0.51 -0.31 0.1-0.67 0.15-1.07 0.15 -0.79 0-1.33-0.12-1.61-0.35 -0.28-0.23-0.43-0.63-0.43-1.2v-2.08c0-0.61 0.16-1.04 0.49-1.3 0.33-0.26 0.86-0.39 1.61-0.39 0.89 0 1.41 0.2 1.56 0.6v-0.5H189.8zM183.79 61.56h-0.95v-3.7c0-0.13-0.01-0.23-0.03-0.32 -0.02-0.08-0.06-0.17-0.13-0.26 -0.07-0.09-0.18-0.15-0.34-0.2 -0.16-0.04-0.36-0.07-0.6-0.07 -0.56 0-0.93 0.06-1.12 0.18 -0.19 0.12-0.29 0.34-0.29 0.67v3.7h-0.95v-5.11h0.95v0.62c0.1-0.49 0.66-0.73 1.68-0.73 0.67 0 1.14 0.12 1.39 0.36 0.25 0.24 0.38 0.61 0.38 1.1L183.79 61.56 183.79 61.56zM177.74 61.56h-0.95v-5.11h0.95V61.56zM177.74 55.6h-0.95v-0.99h0.95V55.6zM175.14 61.56h-0.95v-7.4h0.95V61.56zM172.54 61.56h-0.95v-5.11h0.95V61.56zM172.54 55.6h-0.95v-0.99h0.95V55.6zM168.99 60.53v-1.4h-1.47c-0.44 0-0.71 0.06-0.82 0.17 -0.11 0.11-0.16 0.37-0.16 0.77 0 0.36 0.06 0.61 0.17 0.76 0.12 0.14 0.36 0.22 0.73 0.22h0.19c0.19 0 0.34 0 0.46-0.01 0.12-0.01 0.26-0.02 0.42-0.06 0.15-0.03 0.27-0.09 0.35-0.16C168.95 60.74 168.99 60.65 168.99 60.53zM169.95 61.56h-0.92v-0.49c-0.08 0.4-0.59 0.59-1.54 0.59 -0.7 0-1.19-0.11-1.46-0.32 -0.27-0.22-0.41-0.65-0.41-1.31 0-0.57 0.13-0.96 0.38-1.18 0.25-0.22 0.74-0.32 1.47-0.32h1.53v-0.81c0-0.28-0.09-0.47-0.26-0.57 -0.17-0.1-0.5-0.15-0.98-0.15 -0.52 0-1.1 0.04-1.75 0.13v-0.7c0.7-0.06 1.33-0.09 1.89-0.09 0.86 0 1.42 0.1 1.67 0.31s0.38 0.64 0.38 1.29V61.56zM164.6 59.77v0.44c0 0.55-0.19 0.93-0.58 1.14 -0.38 0.21-0.94 0.32-1.65 0.32 -0.55 0-1.13-0.04-1.75-0.13v-0.73c0.85 0.13 1.44 0.2 1.77 0.2 0.42 0 0.74-0.04 0.95-0.12s0.32-0.25 0.32-0.5v-0.52c0-0.22-0.07-0.37-0.22-0.46 -0.15-0.09-0.39-0.14-0.72-0.14h-0.58c-0.53 0-0.94-0.11-1.22-0.33 -0.27-0.22-0.41-0.52-0.41-0.91v-0.47c0-0.8 0.76-1.2 2.28-1.2 0.17 0 0.69 0.03 1.55 0.08v0.69c-0.6-0.1-1.14-0.15-1.59-0.15 -0.51 0-0.85 0.05-1.03 0.15 -0.18 0.1-0.27 0.27-0.27 0.5v0.43c0 0.35 0.31 0.52 0.94 0.52h0.59C164.06 58.56 164.6 58.96 164.6 59.77zM155.66 61.56h-0.95v-3.69c0-0.13-0.01-0.23-0.03-0.32s-0.06-0.17-0.13-0.26c-0.07-0.09-0.18-0.15-0.34-0.2 -0.16-0.04-0.36-0.07-0.6-0.07 -0.58 0-0.96 0.06-1.14 0.19 -0.17 0.13-0.26 0.35-0.26 0.66v3.69h-0.95v-7.4h0.95v2.91c0.1-0.49 0.66-0.73 1.68-0.73 0.67 0 1.14 0.12 1.39 0.36 0.25 0.24 0.38 0.61 0.38 1.1V61.56zM150.22 61.58c-0.34 0.06-0.69 0.09-1.07 0.09 -0.64 0-1.09-0.11-1.34-0.33 -0.25-0.22-0.38-0.64-0.38-1.26v-3h-1.14v-0.62h1.14v-1.58h0.96v1.59h1.83v0.62h-1.83v3.05c0 0.37 0.07 0.61 0.21 0.73 0.14 0.12 0.43 0.19 0.86 0.19 0.11 0 0.37-0.03 0.76-0.09V61.58zM144.56 60.08v-2.07c0-0.47-0.09-0.76-0.28-0.88 -0.19-0.11-0.56-0.17-1.1-0.17 -0.54 0-0.91 0.06-1.1 0.17 -0.19 0.11-0.28 0.41-0.28 0.88v2.07c0 0.23 0.02 0.4 0.07 0.54 0.05 0.14 0.14 0.23 0.27 0.29 0.13 0.06 0.27 0.1 0.41 0.11 0.14 0.02 0.35 0.02 0.62 0.02 0.27 0 0.48-0.01 0.62-0.02 0.14-0.01 0.28-0.05 0.41-0.11 0.13-0.06 0.23-0.16 0.27-0.29C144.54 60.49 144.56 60.31 144.56 60.08zM145.53 58.17v1.77c0 0.32-0.04 0.58-0.12 0.8 -0.08 0.22-0.17 0.39-0.3 0.51 -0.12 0.12-0.29 0.21-0.51 0.27 -0.22 0.06-0.43 0.1-0.63 0.12 -0.2 0.02-0.47 0.02-0.8 0.02 -0.42 0-0.75-0.02-0.99-0.04 -0.23-0.03-0.47-0.1-0.71-0.21 -0.24-0.11-0.4-0.28-0.51-0.52 -0.1-0.24-0.15-0.56-0.15-0.95v-1.77c0-0.34 0.04-0.62 0.12-0.85 0.08-0.23 0.18-0.41 0.3-0.54 0.12-0.13 0.29-0.22 0.51-0.29 0.23-0.07 0.44-0.11 0.63-0.12 0.19-0.01 0.46-0.02 0.8-0.02 0.34 0 0.6 0.01 0.8 0.02 0.19 0.01 0.4 0.06 0.63 0.12 0.23 0.07 0.4 0.16 0.51 0.29 0.12 0.13 0.22 0.31 0.3 0.54C145.49 57.55 145.53 57.83 145.53 58.17zM138.56 60.08v-2.07c0-0.47-0.09-0.76-0.28-0.88 -0.19-0.11-0.56-0.17-1.1-0.17s-0.91 0.06-1.1 0.17c-0.19 0.11-0.28 0.41-0.28 0.88v2.07c0 0.23 0.02 0.4 0.07 0.54 0.05 0.14 0.14 0.23 0.28 0.29 0.13 0.06 0.27 0.1 0.41 0.11 0.14 0.02 0.35 0.02 0.62 0.02 0.27 0 0.48-0.01 0.62-0.02 0.14-0.01 0.28-0.05 0.41-0.11 0.13-0.06 0.23-0.16 0.28-0.29C138.54 60.49 138.56 60.31 138.56 60.08zM139.53 58.17v1.77c0 0.32-0.04 0.58-0.11 0.8 -0.08 0.22-0.18 0.39-0.3 0.51 -0.12 0.12-0.29 0.21-0.51 0.27 -0.22 0.06-0.43 0.1-0.63 0.12 -0.2 0.02-0.47 0.02-0.8 0.02 -0.42 0-0.75-0.02-0.99-0.04 -0.24-0.03-0.47-0.1-0.71-0.21 -0.24-0.11-0.41-0.28-0.51-0.52 -0.1-0.24-0.15-0.56-0.15-0.95v-1.77c0-0.34 0.04-0.62 0.12-0.85 0.08-0.23 0.18-0.41 0.3-0.54 0.12-0.13 0.29-0.22 0.51-0.29 0.23-0.07 0.44-0.11 0.63-0.12 0.19-0.01 0.46-0.02 0.8-0.02 0.34 0 0.6 0.01 0.8 0.02 0.19 0.01 0.4 0.06 0.63 0.12 0.23 0.07 0.4 0.16 0.51 0.29 0.12 0.13 0.21 0.31 0.3 0.54C139.49 57.55 139.53 57.83 139.53 58.17zM133.36 61.56h-0.95v-3.69c0-0.13-0.01-0.23-0.03-0.32 -0.02-0.08-0.06-0.17-0.13-0.26 -0.07-0.09-0.18-0.15-0.34-0.2 -0.16-0.04-0.36-0.07-0.6-0.07 -0.56 0-0.91 0.06-1.07 0.18 -0.16 0.12-0.24 0.34-0.24 0.67v3.69h-0.95v-3.69c0-0.13-0.01-0.23-0.03-0.32s-0.06-0.17-0.13-0.26c-0.07-0.09-0.18-0.15-0.33-0.2 -0.15-0.04-0.35-0.07-0.59-0.07 -0.56 0-0.94 0.06-1.12 0.17 -0.19 0.12-0.28 0.34-0.28 0.67v3.69h-0.95v-5.11h0.95v0.62c0.1-0.49 0.67-0.73 1.72-0.73 0.85 0 1.38 0.23 1.6 0.7 0.07-0.24 0.27-0.42 0.6-0.53 0.33-0.11 0.71-0.17 1.16-0.17 0.66 0 1.11 0.12 1.36 0.36s0.38 0.61 0.38 1.1v3.75H133.36zM124.3 59.77v0.44c0 0.55-0.19 0.93-0.58 1.14 -0.38 0.21-0.93 0.32-1.65 0.32 -0.55 0-1.13-0.04-1.75-0.13v-0.73c0.85 0.13 1.44 0.2 1.77 0.2 0.42 0 0.74-0.04 0.95-0.12s0.32-0.25 0.32-0.5v-0.52c0-0.22-0.07-0.37-0.22-0.46 -0.15-0.09-0.39-0.14-0.72-0.14h-0.58c-0.54 0-0.94-0.11-1.22-0.33 -0.28-0.22-0.41-0.52-0.41-0.91v-0.47c0-0.8 0.76-1.2 2.28-1.2 0.17 0 0.69 0.03 1.55 0.08v0.69c-0.6-0.1-1.14-0.15-1.59-0.15 -0.51 0-0.85 0.05-1.03 0.15 -0.18 0.1-0.27 0.27-0.27 0.5v0.43c0 0.35 0.31 0.52 0.94 0.52h0.59C123.76 58.56 124.3 58.96 124.3 59.77zM115.7 59.77v0.44c0 0.55-0.19 0.93-0.58 1.14 -0.38 0.21-0.93 0.32-1.65 0.32 -0.55 0-1.13-0.04-1.75-0.13v-0.73c0.84 0.13 1.44 0.2 1.77 0.2 0.42 0 0.74-0.04 0.95-0.12 0.21-0.08 0.32-0.25 0.32-0.5v-0.52c0-0.22-0.07-0.37-0.22-0.46 -0.15-0.09-0.39-0.14-0.72-0.14h-0.58c-0.53 0-0.94-0.11-1.22-0.33 -0.28-0.22-0.41-0.52-0.41-0.91v-0.47c0-0.8 0.76-1.2 2.28-1.2 0.17 0 0.69 0.03 1.55 0.08v0.69c-0.6-0.1-1.14-0.15-1.6-0.15 -0.51 0-0.85 0.05-1.03 0.15 -0.18 0.1-0.27 0.27-0.27 0.5v0.43c0 0.35 0.31 0.52 0.94 0.52h0.59C115.16 58.56 115.7 58.96 115.7 59.77zM110.6 59.77v0.44c0 0.55-0.19 0.93-0.58 1.14 -0.38 0.21-0.93 0.32-1.65 0.32 -0.55 0-1.13-0.04-1.75-0.13v-0.73c0.85 0.13 1.44 0.2 1.78 0.2 0.42 0 0.74-0.04 0.95-0.12s0.32-0.25 0.32-0.5v-0.52c0-0.22-0.07-0.37-0.22-0.46 -0.15-0.09-0.39-0.14-0.72-0.14h-0.58c-0.54 0-0.94-0.11-1.22-0.33 -0.28-0.22-0.41-0.52-0.41-0.91v-0.47c0-0.8 0.76-1.2 2.28-1.2 0.17 0 0.69 0.03 1.55 0.08v0.69c-0.61-0.1-1.14-0.15-1.59-0.15 -0.51 0-0.85 0.05-1.03 0.15 -0.18 0.1-0.27 0.27-0.27 0.5v0.43c0 0.35 0.31 0.52 0.94 0.52h0.59C110.06 58.56 110.6 58.96 110.6 59.77zM104.41 58.59v-0.8c0-0.31-0.09-0.52-0.28-0.64 -0.19-0.12-0.51-0.17-0.95-0.17 -0.42 0-0.74 0.06-0.94 0.17 -0.2 0.11-0.31 0.33-0.31 0.65v0.8H104.41zM105.36 59.22h-3.43v0.77c0 0.36 0.13 0.61 0.38 0.77 0.26 0.15 0.63 0.23 1.13 0.23 0.49 0 1.06-0.08 1.72-0.25v0.73c-0.63 0.14-1.25 0.21-1.85 0.21 -1.56 0-2.35-0.52-2.35-1.56v-2.02c0-0.63 0.18-1.07 0.54-1.34 0.36-0.27 0.93-0.4 1.72-0.4 0.74 0 1.28 0.13 1.62 0.38 0.34 0.26 0.51 0.71 0.51 1.36L105.36 59.22 105.36 59.22zM99.51 61.56h-0.95v-3.7c0-0.13-0.01-0.23-0.03-0.32 -0.02-0.08-0.06-0.17-0.13-0.26 -0.07-0.09-0.18-0.15-0.34-0.2 -0.16-0.04-0.36-0.07-0.6-0.07 -0.56 0-0.93 0.06-1.12 0.18 -0.19 0.12-0.28 0.34-0.28 0.67v3.7h-0.95v-5.11h0.95v0.62c0.1-0.49 0.66-0.73 1.68-0.73 0.68 0 1.14 0.12 1.4 0.36s0.38 0.61 0.38 1.1L99.51 61.56 99.51 61.56zM93.46 61.56h-0.95v-5.11h0.95V61.56zM93.46 55.6h-0.95v-0.99h0.95V55.6zM91.19 59.77v0.44c0 0.55-0.19 0.93-0.58 1.14 -0.38 0.21-0.93 0.32-1.65 0.32 -0.55 0-1.13-0.04-1.75-0.13v-0.73c0.85 0.13 1.44 0.2 1.78 0.2 0.42 0 0.74-0.04 0.95-0.12 0.21-0.08 0.32-0.25 0.32-0.5v-0.52c0-0.22-0.07-0.37-0.22-0.46 -0.15-0.09-0.39-0.14-0.72-0.14h-0.58c-0.54 0-0.94-0.11-1.21-0.33 -0.28-0.22-0.41-0.52-0.41-0.91v-0.47c0-0.8 0.76-1.2 2.28-1.2 0.17 0 0.69 0.03 1.55 0.08v0.69c-0.6-0.1-1.14-0.15-1.6-0.15 -0.51 0-0.85 0.05-1.03 0.15 -0.18 0.1-0.27 0.27-0.27 0.5v0.43c0 0.35 0.31 0.52 0.94 0.52h0.59C90.66 58.56 91.19 58.96 91.19 59.77zM85.75 61.56h-0.95v-0.62c-0.1 0.48-0.66 0.73-1.68 0.73 -0.67 0-1.14-0.12-1.39-0.36 -0.25-0.24-0.38-0.61-0.38-1.1v-3.75H82.3v3.7c0 0.13 0.01 0.23 0.03 0.32 0.02 0.08 0.07 0.17 0.13 0.26 0.07 0.09 0.18 0.16 0.34 0.2 0.16 0.05 0.36 0.07 0.6 0.07 0.53 0 0.89-0.05 1.1-0.15 0.2-0.1 0.31-0.28 0.31-0.54v-3.85h0.95v5.11H85.75zM78.92 60.03v-2.01c0-0.44-0.1-0.71-0.31-0.83 -0.2-0.11-0.57-0.17-1.09-0.17 -0.5 0-0.85 0.07-1.04 0.2 -0.2 0.13-0.29 0.4-0.29 0.8v2.01c0 0.43 0.1 0.71 0.29 0.83 0.19 0.12 0.55 0.19 1.06 0.19 0.52 0 0.88-0.06 1.08-0.19C78.82 60.73 78.92 60.46 78.92 60.03zM79.89 57.79v2.1c0 0.31-0.04 0.58-0.14 0.8 -0.09 0.23-0.21 0.4-0.34 0.52 -0.14 0.12-0.32 0.22-0.54 0.29 -0.23 0.07-0.44 0.12-0.63 0.13 -0.2 0.02-0.44 0.03-0.72 0.03 -0.37 0-0.66-0.02-0.9-0.05 -0.23-0.04-0.46-0.11-0.7-0.22 -0.23-0.11-0.4-0.29-0.52-0.55 -0.11-0.25-0.17-0.56-0.17-0.95v-5.73h0.95V55.7c0 0.14 0 0.34-0.01 0.61 0 0.27 0 0.48 0 0.61 0.03-0.16 0.17-0.3 0.44-0.41 0.27-0.11 0.65-0.16 1.17-0.16C79.19 56.35 79.89 56.83 79.89 57.79zM70.79 57.16h-0.53c-0.44 0-0.76 0.06-0.97 0.17s-0.31 0.32-0.31 0.64v3.6h-0.95v-5.11h0.9v0.83c0-0.25 0.15-0.46 0.46-0.65 0.31-0.19 0.62-0.28 0.94-0.28h0.46L70.79 57.16 70.79 57.16zM66.38 61.56H65.43v-0.62c-0.1 0.48-0.66 0.73-1.68 0.73 -0.68 0-1.14-0.12-1.39-0.36 -0.25-0.24-0.38-0.61-0.38-1.1v-3.75h0.95v3.7c0 0.13 0.01 0.23 0.03 0.32 0.02 0.08 0.07 0.17 0.13 0.26 0.07 0.09 0.18 0.16 0.34 0.2 0.16 0.05 0.36 0.07 0.6 0.07 0.53 0 0.89-0.05 1.1-0.15 0.21-0.1 0.31-0.28 0.31-0.54v-3.85h0.95V61.56zM59.53 60.08v-2.07c0-0.47-0.1-0.76-0.28-0.88 -0.19-0.11-0.56-0.17-1.1-0.17s-0.91 0.06-1.1 0.17c-0.19 0.11-0.28 0.41-0.28 0.88v2.07c0 0.23 0.02 0.4 0.07 0.54 0.05 0.14 0.14 0.23 0.27 0.29 0.13 0.06 0.27 0.1 0.41 0.11 0.14 0.02 0.35 0.02 0.62 0.02 0.28 0 0.48-0.01 0.62-0.02 0.14-0.01 0.28-0.05 0.41-0.11 0.13-0.06 0.23-0.16 0.28-0.29C59.5 60.49 59.53 60.31 59.53 60.08zM60.5 58.17v1.77c0 0.32-0.04 0.58-0.12 0.8 -0.08 0.22-0.17 0.39-0.29 0.51 -0.12 0.12-0.29 0.21-0.51 0.27 -0.22 0.06-0.43 0.1-0.63 0.12 -0.2 0.02-0.47 0.02-0.8 0.02 -0.42 0-0.75-0.02-0.99-0.04 -0.24-0.03-0.47-0.1-0.71-0.21 -0.23-0.11-0.4-0.28-0.51-0.52 -0.1-0.24-0.15-0.56-0.15-0.95v-1.77c0-0.34 0.04-0.62 0.12-0.85 0.08-0.23 0.18-0.41 0.3-0.54 0.12-0.13 0.29-0.22 0.51-0.29 0.23-0.07 0.44-0.11 0.63-0.12 0.19-0.01 0.46-0.02 0.8-0.02 0.34 0 0.6 0.01 0.8 0.02 0.19 0.01 0.4 0.06 0.63 0.12 0.23 0.07 0.4 0.16 0.51 0.29 0.12 0.13 0.22 0.31 0.3 0.54C60.46 57.55 60.5 57.83 60.5 58.17zM55.09 56.45l-2.57 7.31h-0.99l0.8-2.12 -1.97-5.19h1.03l1.43 4.17h0.02l1.29-4.17H55.09zM45.22 58.59v-0.8c0-0.31-0.09-0.52-0.28-0.64 -0.19-0.12-0.51-0.17-0.95-0.17 -0.42 0-0.74 0.06-0.94 0.17 -0.2 0.11-0.31 0.33-0.31 0.65v0.8H45.22zM46.17 59.22h-3.43v0.77c0 0.36 0.13 0.61 0.38 0.77 0.25 0.15 0.63 0.23 1.13 0.23 0.49 0 1.06-0.08 1.72-0.25v0.73c-0.63 0.14-1.25 0.21-1.85 0.21 -1.56 0-2.34-0.52-2.34-1.56v-2.02c0-0.63 0.18-1.07 0.54-1.34 0.36-0.27 0.93-0.4 1.72-0.4 0.74 0 1.28 0.13 1.62 0.38 0.34 0.26 0.51 0.71 0.51 1.36L46.17 59.22 46.17 59.22zM37.49 61.56h-0.95v-7.4h0.95V61.56zM41.12 61.56H39.94l-2.33-2.8 2.15-2.31h1.16l-2.22 2.31L41.12 61.56zM33.94 60.53v-1.4h-1.47c-0.44 0-0.71 0.06-0.82 0.17 -0.11 0.11-0.16 0.37-0.16 0.77 0 0.36 0.06 0.61 0.17 0.76 0.12 0.14 0.36 0.22 0.73 0.22h0.19c0.18 0 0.34 0 0.46-0.01 0.12-0.01 0.26-0.02 0.42-0.06 0.16-0.03 0.27-0.09 0.35-0.16C33.9 60.74 33.94 60.65 33.94 60.53zM34.89 61.56h-0.92v-0.49c-0.08 0.4-0.59 0.59-1.54 0.59 -0.7 0-1.19-0.11-1.46-0.32 -0.27-0.22-0.41-0.65-0.41-1.31 0-0.57 0.13-0.96 0.38-1.18 0.25-0.22 0.74-0.32 1.47-0.32h1.53v-0.81c0-0.28-0.09-0.47-0.26-0.57 -0.17-0.1-0.5-0.15-0.98-0.15 -0.52 0-1.1 0.04-1.75 0.13v-0.7c0.7-0.06 1.33-0.09 1.89-0.09 0.86 0 1.42 0.1 1.67 0.31 0.25 0.21 0.38 0.64 0.38 1.29v3.61H34.89zM29.21 61.56h-0.95v-3.69c0-0.13-0.01-0.23-0.03-0.32s-0.07-0.17-0.13-0.26c-0.07-0.09-0.18-0.15-0.34-0.2 -0.16-0.04-0.36-0.07-0.6-0.07 -0.56 0-0.91 0.06-1.07 0.18 -0.16 0.12-0.24 0.34-0.24 0.67v3.69h-0.95v-3.69c0-0.13-0.01-0.23-0.03-0.32 -0.02-0.08-0.06-0.17-0.13-0.26 -0.07-0.09-0.18-0.15-0.33-0.2 -0.15-0.04-0.35-0.07-0.59-0.07 -0.56 0-0.94 0.06-1.12 0.17 -0.19 0.12-0.28 0.34-0.28 0.67v3.69h-0.95v-5.11h0.95v0.62c0.1-0.49 0.67-0.73 1.72-0.73 0.85 0 1.38 0.23 1.6 0.7 0.07-0.24 0.27-0.42 0.6-0.53 0.33-0.11 0.71-0.17 1.16-0.17 0.66 0 1.11 0.12 1.36 0.36s0.38 0.61 0.38 1.1v3.75H29.21z"/><path fill="#FFFFFF" d="M222.89 25.74h-1.68l-2.63-3.91h-1.33v3.91h-1.37v-9.16h3.22c1.15 0 1.97 0.12 2.47 0.35 0.5 0.23 0.75 0.71 0.75 1.45v1.58c0 0.56-0.23 0.99-0.69 1.28 -0.46 0.29-1.02 0.43-1.68 0.43L222.89 25.74zM220.96 19.79v-1.27c0-0.69-0.59-1.03-1.78-1.03h-1.92v3.44h1.79c0.65 0 1.13-0.08 1.44-0.24C220.8 20.53 220.96 20.23 220.96 19.79z"/><path fill="#FFFFFF" d="M229.83 25.74h-1.23v-0.65c-0.1 0.53-0.79 0.79-2.06 0.79 -0.94 0-1.59-0.14-1.95-0.43 -0.36-0.29-0.54-0.87-0.54-1.74 0-0.76 0.17-1.29 0.51-1.57 0.34-0.29 0.99-0.43 1.96-0.43h2.05V20.62c0-0.38-0.11-0.63-0.35-0.76 -0.23-0.13-0.66-0.2-1.31-0.2 -0.7 0-1.48 0.06-2.34 0.17v-0.93c0.93-0.08 1.77-0.13 2.53-0.13 1.15 0 1.89 0.14 2.23 0.42 0.34 0.28 0.51 0.85 0.51 1.73v4.83H229.83zM228.56 24.36v-1.86h-1.96c-0.58 0-0.95 0.08-1.09 0.23 -0.15 0.15-0.22 0.49-0.22 1.03 0 0.48 0.08 0.82 0.23 1.01 0.16 0.19 0.48 0.29 0.98 0.29h0.25c0.25 0 0.45 0 0.61-0.01 0.16-0.01 0.35-0.04 0.56-0.08 0.21-0.04 0.37-0.11 0.47-0.21C228.51 24.65 228.56 24.52 228.56 24.36z"/><path fill="#FFFFFF" d="M233.31 17.77h-1.27v-1.33h1.27V17.77zM233.31 25.74h-1.27v-6.83h1.27V25.74z"/><path fill="#FFFFFF" d="M241.4 25.74h-1.27v-4.94c0-0.17-0.01-0.31-0.04-0.42 -0.03-0.11-0.09-0.23-0.18-0.34 -0.09-0.12-0.24-0.21-0.45-0.27 -0.21-0.06-0.48-0.09-0.8-0.09 -0.74 0-1.24 0.08-1.49 0.24 -0.26 0.16-0.38 0.46-0.38 0.89v4.94h-1.27v-6.83h1.27v0.83c0.13-0.65 0.88-0.97 2.24-0.97 0.9 0 1.52 0.16 1.86 0.49 0.34 0.33 0.51 0.82 0.51 1.48V25.74L241.4 25.74z"/><path fill="#FFFFFF" d="M249.82 20.71v2.81c0 0.41-0.06 0.77-0.18 1.07 -0.12 0.3-0.28 0.53-0.46 0.7s-0.43 0.29-0.73 0.39c-0.3 0.09-0.58 0.15-0.85 0.18 -0.26 0.02-0.58 0.04-0.96 0.04 -0.49 0-0.89-0.02-1.2-0.07 -0.31-0.05-0.62-0.15-0.93-0.3 -0.31-0.15-0.54-0.39-0.69-0.73 -0.15-0.33-0.23-0.76-0.23-1.28v-7.65h1.27v2.05c0 0.18 0 0.45-0.01 0.81 0 0.36-0.01 0.63-0.01 0.81 0.04-0.22 0.23-0.4 0.59-0.54 0.35-0.15 0.87-0.22 1.56-0.22C248.88 18.77 249.82 19.42 249.82 20.71zM248.52 23.7v-2.68c0-0.58-0.14-0.95-0.41-1.11 -0.27-0.15-0.76-0.23-1.45-0.23 -0.67 0-1.13 0.09-1.4 0.27 -0.26 0.18-0.4 0.54-0.4 1.07v2.68c0 0.57 0.13 0.94 0.39 1.11 0.26 0.17 0.73 0.25 1.42 0.25 0.7 0 1.18-0.08 1.45-0.25C248.39 24.64 248.52 24.27 248.52 23.7z"/><path fill="#FFFFFF" d="M257.81 21.21v2.37c0 0.42-0.05 0.78-0.16 1.07s-0.23 0.52-0.39 0.68c-0.16 0.16-0.39 0.28-0.68 0.37s-0.58 0.14-0.85 0.16c-0.27 0.02-0.62 0.03-1.06 0.03 -0.56 0-1-0.02-1.32-0.06 -0.31-0.04-0.63-0.13-0.95-0.28 -0.31-0.15-0.54-0.38-0.68-0.7 -0.14-0.32-0.2-0.74-0.2-1.27v-2.37c0-0.45 0.05-0.83 0.16-1.14 0.11-0.31 0.24-0.55 0.4-0.72 0.16-0.17 0.38-0.3 0.69-0.39 0.3-0.09 0.58-0.14 0.84-0.16 0.26-0.02 0.61-0.03 1.07-0.03 0.45 0 0.81 0.01 1.07 0.03 0.26 0.02 0.54 0.07 0.84 0.16 0.3 0.09 0.53 0.22 0.69 0.39 0.16 0.17 0.29 0.41 0.4 0.72C257.76 20.38 257.81 20.76 257.81 21.21zM256.51 23.77v-2.77c0-0.63-0.13-1.02-0.38-1.17 -0.25-0.15-0.74-0.23-1.47-0.23s-1.22 0.08-1.47 0.23 -0.38 0.54-0.38 1.17v2.77c0 0.3 0.03 0.54 0.1 0.72 0.06 0.18 0.19 0.31 0.37 0.39 0.18 0.08 0.36 0.13 0.55 0.15 0.19 0.02 0.47 0.03 0.83 0.03 0.37 0 0.65-0.01 0.83-0.03s0.37-0.07 0.55-0.15 0.3-0.21 0.37-0.39C256.48 24.31 256.51 24.07 256.51 23.77z"/><path fill="#FFFFFF" d="M269.69 18.91l-2.24 6.83h-1.51l-1.65-5.52 -1.62 5.52h-1.51l-2.3-6.83h1.4l1.67 5.62h0.08l1.61-5.62h1.43l1.67 5.62h0.09l1.61-5.62H269.69z"/><path fill="#FFFFFF" d="M222.19 43.31h-6.3v-9.16h6.15v0.96h-4.78v2.99h4.32v0.96h-4.32v3.29h4.93V43.31z"/><path fill="#FFFFFF" d="M227.38 39.77h-3.92v-1.02h3.92V39.77z"/><path fill="#FFFFFF" d="M233.98 43.25c-0.62 0.13-1.35 0.2-2.19 0.2 -0.41 0-0.73-0.01-0.97-0.02 -0.23-0.01-0.49-0.06-0.79-0.14 -0.3-0.08-0.52-0.19-0.68-0.34 -0.15-0.15-0.29-0.37-0.4-0.66 -0.11-0.29-0.17-0.64-0.17-1.06v-2.51c0-0.38 0.04-0.7 0.11-0.97 0.07-0.27 0.18-0.49 0.33-0.66 0.15-0.17 0.31-0.31 0.47-0.41 0.16-0.1 0.38-0.18 0.66-0.22 0.28-0.04 0.52-0.07 0.73-0.09 0.21-0.01 0.5-0.02 0.85-0.02 0.65 0 1.3 0.07 1.95 0.21v0.93c-0.73-0.19-1.44-0.28-2.1-0.28 -0.71 0-1.16 0.08-1.38 0.25 -0.21 0.17-0.32 0.53-0.32 1.07v2.8c0 0.5 0.12 0.83 0.36 0.99 0.24 0.17 0.73 0.25 1.48 0.25 0.67 0 1.35-0.09 2.06-0.27V43.25L233.98 43.25z"/><path fill="#FFFFFF" d="M241.63 38.77v2.37c0 0.42-0.05 0.78-0.15 1.07 -0.1 0.29-0.23 0.52-0.39 0.68s-0.39 0.28-0.69 0.37c-0.3 0.09-0.58 0.14-0.85 0.16 -0.27 0.02-0.62 0.03-1.06 0.03 -0.56 0-1-0.02-1.32-0.06s-0.63-0.13-0.95-0.28c-0.31-0.14-0.54-0.38-0.68-0.7 -0.14-0.32-0.2-0.74-0.2-1.27v-2.37c0-0.45 0.05-0.83 0.16-1.14s0.24-0.55 0.4-0.72c0.16-0.17 0.38-0.3 0.69-0.39 0.3-0.09 0.58-0.14 0.84-0.16 0.26-0.02 0.61-0.03 1.06-0.03 0.45 0 0.81 0.01 1.07 0.03 0.26 0.02 0.54 0.07 0.84 0.16 0.3 0.09 0.53 0.22 0.69 0.39 0.16 0.17 0.29 0.41 0.4 0.72C241.58 37.94 241.63 38.32 241.63 38.77zM240.34 41.33v-2.77c0-0.63-0.13-1.02-0.38-1.17 -0.25-0.15-0.74-0.23-1.47-0.23s-1.22 0.08-1.47 0.23c-0.25 0.15-0.38 0.54-0.38 1.17v2.77c0 0.3 0.03 0.54 0.1 0.72 0.06 0.18 0.19 0.31 0.37 0.39 0.18 0.08 0.36 0.13 0.55 0.15 0.19 0.02 0.47 0.03 0.83 0.03 0.37 0 0.65-0.01 0.83-0.03 0.19-0.02 0.37-0.07 0.55-0.15 0.18-0.08 0.3-0.21 0.37-0.39C240.3 41.87 240.34 41.63 240.34 41.33z"/><path fill="#FFFFFF" d="M253.97 43.31H252.7v-4.93c0-0.17-0.01-0.31-0.04-0.42 -0.03-0.11-0.09-0.23-0.18-0.35 -0.09-0.12-0.24-0.2-0.45-0.27 -0.21-0.06-0.48-0.09-0.8-0.09 -0.74 0-1.22 0.08-1.43 0.24 -0.21 0.16-0.32 0.46-0.32 0.89v4.93h-1.27v-4.93c0-0.17-0.01-0.31-0.04-0.42 -0.03-0.11-0.09-0.23-0.18-0.35 -0.09-0.12-0.24-0.21-0.44-0.27 -0.21-0.06-0.47-0.09-0.79-0.09 -0.75 0-1.25 0.08-1.5 0.23 -0.25 0.16-0.37 0.46-0.37 0.9v4.93h-1.27v-6.83h1.27v0.83c0.13-0.65 0.9-0.97 2.3-0.97 1.14 0 1.85 0.31 2.13 0.93 0.09-0.32 0.36-0.56 0.8-0.7 0.44-0.15 0.95-0.23 1.55-0.23 0.88 0 1.48 0.16 1.81 0.49 0.34 0.33 0.5 0.82 0.5 1.48V43.31z"/><path fill="#FFFFFF" d="M266.53 43.31h-1.27v-4.93c0-0.17-0.01-0.31-0.04-0.42 -0.03-0.11-0.09-0.23-0.18-0.35 -0.09-0.12-0.24-0.2-0.45-0.27 -0.21-0.06-0.48-0.09-0.8-0.09 -0.74 0-1.22 0.08-1.43 0.24 -0.21 0.16-0.32 0.46-0.32 0.89v4.93h-1.27v-4.93c0-0.17-0.02-0.31-0.04-0.42 -0.03-0.11-0.09-0.23-0.18-0.35s-0.24-0.21-0.44-0.27c-0.2-0.06-0.47-0.09-0.79-0.09 -0.75 0-1.25 0.08-1.5 0.23 -0.25 0.16-0.37 0.46-0.37 0.9v4.93h-1.27v-6.83h1.27v0.83c0.13-0.65 0.9-0.97 2.3-0.97 1.14 0 1.85 0.31 2.13 0.93 0.09-0.32 0.36-0.56 0.8-0.7s0.95-0.23 1.55-0.23c0.88 0 1.48 0.16 1.81 0.49 0.34 0.33 0.5 0.82 0.5 1.48V43.31z"/><path fill="#FFFFFF" d="M274.35 40.17h-4.59v1.03c0 0.48 0.17 0.82 0.51 1.02 0.34 0.2 0.84 0.3 1.51 0.3 0.65 0 1.42-0.11 2.3-0.34v0.97c-0.85 0.19-1.67 0.28-2.47 0.28 -2.09 0-3.13-0.7-3.13-2.09V38.66c0-0.84 0.24-1.44 0.72-1.79 0.48-0.36 1.25-0.54 2.3-0.54 0.99 0 1.71 0.17 2.17 0.52 0.46 0.34 0.69 0.95 0.69 1.81v1.51H274.35zM273.08 39.34v-1.07c0-0.41-0.13-0.7-0.38-0.85 -0.26-0.15-0.68-0.23-1.27-0.23 -0.56 0-0.98 0.07-1.26 0.23 -0.27 0.15-0.41 0.44-0.41 0.86v1.07L273.08 39.34 273.08 39.34z"/><path fill="#FFFFFF" d="M279.97 37.42h-0.71c-0.58 0-1.01 0.08-1.29 0.23 -0.28 0.15-0.42 0.43-0.42 0.85v4.81h-1.27v-6.83h1.2v1.11c0-0.33 0.21-0.62 0.61-0.87 0.41-0.25 0.83-0.38 1.25-0.38h0.62V37.42L279.97 37.42z"/><path fill="#FFFFFF" d="M286.04 43.25c-0.62 0.13-1.35 0.2-2.19 0.2 -0.41 0-0.73-0.01-0.97-0.02 -0.23-0.01-0.49-0.06-0.79-0.14 -0.3-0.08-0.52-0.19-0.68-0.34 -0.15-0.15-0.29-0.37-0.4-0.66 -0.11-0.29-0.17-0.64-0.17-1.06v-2.51c0-0.38 0.04-0.7 0.11-0.97s0.18-0.49 0.33-0.66c0.15-0.17 0.31-0.31 0.47-0.41 0.16-0.1 0.38-0.18 0.66-0.22 0.28-0.04 0.52-0.07 0.73-0.09 0.21-0.01 0.5-0.02 0.85-0.02 0.65 0 1.3 0.07 1.95 0.21v0.93c-0.73-0.19-1.44-0.28-2.1-0.28 -0.71 0-1.16 0.08-1.38 0.25s-0.31 0.53-0.31 1.07v2.8c0 0.5 0.12 0.83 0.36 0.99 0.24 0.17 0.73 0.25 1.48 0.25 0.67 0 1.35-0.09 2.06-0.27L286.04 43.25 286.04 43.25z"/><path fill="#FFFFFF" d="M293.27 40.17h-4.59v1.03c0 0.48 0.17 0.82 0.51 1.02 0.34 0.2 0.84 0.3 1.51 0.3 0.65 0 1.42-0.11 2.3-0.34v0.97c-0.85 0.19-1.67 0.28-2.47 0.28 -2.09 0-3.13-0.7-3.13-2.09V38.66c0-0.84 0.24-1.44 0.72-1.79s1.25-0.54 2.3-0.54c0.99 0 1.71 0.17 2.17 0.52 0.46 0.34 0.68 0.95 0.68 1.81V40.17L293.27 40.17zM292 39.34v-1.07c0-0.41-0.13-0.7-0.38-0.85 -0.25-0.15-0.68-0.23-1.27-0.23 -0.56 0-0.98 0.07-1.26 0.23 -0.27 0.15-0.41 0.44-0.41 0.86v1.07L292 39.34 292 39.34z"/><path fill="#FFFFFF" d="M220.75 60.81c-0.62 0.13-1.35 0.2-2.19 0.2 -0.41 0-0.73-0.01-0.97-0.02 -0.23-0.01-0.49-0.06-0.79-0.14 -0.3-0.08-0.52-0.19-0.68-0.35s-0.29-0.37-0.4-0.66c-0.11-0.29-0.17-0.64-0.17-1.06v-2.51c0-0.38 0.04-0.7 0.11-0.97 0.07-0.27 0.18-0.49 0.33-0.66s0.31-0.31 0.47-0.41c0.16-0.1 0.38-0.18 0.66-0.22 0.28-0.04 0.52-0.07 0.73-0.08 0.21-0.02 0.5-0.02 0.85-0.02 0.65 0 1.3 0.07 1.95 0.21v0.93c-0.73-0.19-1.44-0.28-2.1-0.28 -0.71 0-1.16 0.09-1.38 0.25 -0.21 0.17-0.31 0.53-0.31 1.07v2.8c0 0.5 0.12 0.83 0.36 1 0.24 0.17 0.73 0.25 1.48 0.25 0.67 0 1.35-0.09 2.06-0.27V60.81L220.75 60.81z"/><path fill="#FFFFFF" d="M228.4 56.33v2.37c0 0.42-0.05 0.78-0.15 1.07 -0.1 0.29-0.23 0.52-0.39 0.68 -0.16 0.16-0.39 0.28-0.69 0.37 -0.3 0.09-0.58 0.14-0.85 0.16 -0.27 0.02-0.62 0.03-1.06 0.03 -0.56 0-1-0.02-1.32-0.06 -0.31-0.04-0.63-0.13-0.94-0.27 -0.31-0.14-0.54-0.38-0.68-0.7 -0.14-0.32-0.2-0.74-0.2-1.27v-2.37c0-0.45 0.06-0.83 0.16-1.14s0.24-0.55 0.4-0.72 0.38-0.3 0.69-0.39c0.3-0.09 0.58-0.14 0.84-0.16 0.26-0.02 0.61-0.03 1.06-0.03s0.81 0.01 1.06 0.03c0.26 0.02 0.54 0.07 0.84 0.16 0.3 0.09 0.53 0.22 0.69 0.39s0.29 0.41 0.4 0.72C228.34 55.5 228.4 55.88 228.4 56.33zM227.1 58.89v-2.77c0-0.63-0.12-1.02-0.38-1.17 -0.25-0.15-0.74-0.23-1.47-0.23 -0.72 0-1.21 0.08-1.47 0.23 -0.25 0.15-0.38 0.54-0.38 1.17v2.77c0 0.3 0.03 0.54 0.1 0.72 0.07 0.18 0.19 0.31 0.37 0.39 0.18 0.08 0.36 0.13 0.55 0.15 0.19 0.02 0.47 0.03 0.83 0.03 0.37 0 0.65-0.01 0.83-0.03 0.19-0.02 0.37-0.07 0.55-0.15 0.18-0.08 0.3-0.21 0.37-0.39C227.06 59.43 227.1 59.19 227.1 58.89z"/><path fill="#FFFFFF" d="M240.73 60.86h-1.27v-4.93c0-0.17-0.01-0.31-0.04-0.42 -0.03-0.11-0.09-0.23-0.18-0.34 -0.09-0.12-0.24-0.21-0.45-0.27 -0.21-0.06-0.48-0.09-0.8-0.09 -0.74 0-1.22 0.08-1.43 0.24s-0.32 0.46-0.32 0.89v4.93h-1.27v-4.93c0-0.17-0.02-0.31-0.04-0.42 -0.03-0.11-0.09-0.23-0.18-0.34 -0.09-0.12-0.24-0.21-0.44-0.27 -0.21-0.06-0.47-0.09-0.79-0.09 -0.75 0-1.25 0.08-1.5 0.23 -0.25 0.15-0.37 0.46-0.37 0.9v4.93h-1.27v-6.83h1.27v0.83c0.13-0.65 0.9-0.97 2.3-0.97 1.14 0 1.85 0.31 2.13 0.93 0.09-0.32 0.36-0.56 0.8-0.7s0.95-0.23 1.55-0.23c0.88 0 1.48 0.16 1.81 0.49 0.33 0.33 0.5 0.82 0.5 1.48v5.01H240.73z"/><path fill="#FFFFFF" d="M249.16 58.63c0 0.41-0.06 0.77-0.18 1.07 -0.12 0.3-0.27 0.53-0.46 0.7 -0.18 0.16-0.43 0.29-0.73 0.39 -0.3 0.1-0.58 0.15-0.85 0.18 -0.26 0.02-0.58 0.04-0.96 0.04 -0.38 0-0.74-0.05-1.1-0.14 -0.36-0.1-0.58-0.24-0.68-0.44v3.37h-1.27v-9.77h1.26v0.73h0.02c0.1-0.58 0.88-0.87 2.33-0.87 0.91 0 1.58 0.19 2 0.57 0.42 0.38 0.63 0.84 0.63 1.36v2.81H249.16zM247.86 58.79v-2.51c0-0.63-0.14-1.03-0.41-1.21 -0.27-0.17-0.76-0.26-1.45-0.26s-1.17 0.08-1.42 0.25c-0.25 0.17-0.37 0.57-0.37 1.22v2.51c0 0.57 0.13 0.94 0.39 1.11 0.26 0.17 0.73 0.25 1.42 0.25 0.7 0 1.18-0.08 1.45-0.25C247.73 59.73 247.86 59.36 247.86 58.79z"/><path fill="#FFFFFF" d="M256.5 60.86h-1.23v-0.65c-0.1 0.53-0.79 0.79-2.06 0.79 -0.94 0-1.59-0.14-1.95-0.43 -0.36-0.29-0.54-0.87-0.54-1.74 0-0.76 0.17-1.29 0.51-1.57 0.34-0.29 0.99-0.43 1.96-0.43h2.05v-1.09c0-0.38-0.11-0.63-0.35-0.76s-0.67-0.2-1.31-0.2c-0.7 0-1.48 0.06-2.34 0.17v-0.93c0.93-0.09 1.77-0.13 2.53-0.13 1.15 0 1.89 0.14 2.23 0.42 0.34 0.28 0.51 0.85 0.51 1.73v4.83H256.5zM255.23 59.48v-1.86h-1.96c-0.58 0-0.95 0.08-1.09 0.23 -0.15 0.15-0.22 0.49-0.22 1.03 0 0.48 0.08 0.82 0.23 1.01 0.15 0.19 0.48 0.29 0.98 0.29h0.25c0.24 0 0.45 0 0.61-0.01 0.16-0.01 0.35-0.04 0.56-0.08 0.21-0.04 0.37-0.11 0.47-0.21S255.23 59.64 255.23 59.48z"/><path fill="#FFFFFF" d="M264.58 60.86h-1.27v-4.94c0-0.17-0.01-0.31-0.04-0.42 -0.03-0.11-0.09-0.23-0.18-0.35 -0.09-0.12-0.24-0.2-0.45-0.27 -0.21-0.06-0.48-0.09-0.8-0.09 -0.74 0-1.24 0.08-1.5 0.24 -0.25 0.16-0.38 0.46-0.38 0.89v4.94h-1.27v-6.83h1.27v0.83c0.13-0.65 0.88-0.97 2.24-0.97 0.9 0 1.52 0.16 1.86 0.49 0.34 0.33 0.51 0.82 0.51 1.48L264.58 60.86 264.58 60.86z"/><path fill="#FFFFFF" d="M271.95 54.03l-3.43 9.77h-1.33l1.07-2.84 -2.64-6.93h1.38l1.91 5.58h0.03l1.72-5.58H271.95z"/><rect x="201" y="16" fill="#FFFFFF" width="1" height="48"/></svg>